<svg width="595" height="173" viewBox="0 0 595 173" fill="none" xmlns="http://www.w3.org/2000/svg">
<mask id="mask0_302_700" style="mask-type:luminance" maskUnits="userSpaceOnUse" x="12" y="19" width="141" height="141">
<path d="M12.4409 89.3923C12.4409 128.101 43.8407 159.376 82.5698 159.376C121.299 159.376 152.699 128.074 152.699 89.3653C152.699 50.6565 121.299 19.1921 82.5698 19.1921C43.8407 19.2192 12.4409 50.6835 12.4409 89.3923Z" fill="white"/>
</mask>
<g mask="url(#mask0_302_700)">
<path d="M152.672 19.2192H12.4409V159.403H152.672V19.2192Z" fill="#111827"/>
</g>
<mask id="mask1_302_700" style="mask-type:luminance" maskUnits="userSpaceOnUse" x="18" y="47" width="108" height="103">
<path d="M40.1355 145.104C42.2991 146.726 44.5709 148.185 46.9239 149.618C65.1796 128.263 91.035 113.261 120.542 107.666C120.596 99.5292 116.16 91.9334 108.696 87.7706C78.4318 97.5289 53.8205 118.154 40.1355 145.104ZM18.4991 117.775C19.6621 120.316 20.9332 122.83 22.3396 125.182C26.8021 101.124 38.7021 78.8773 56.7143 61.5232C54.3884 56.2792 49.358 52.4678 43.1375 51.3865C26.5316 69.4975 17.7148 93.1768 18.4991 117.775ZM27.7757 132.967C29.8852 135.67 32.2112 138.211 34.6723 140.563C49.9259 104.935 82.7321 77.4447 125.193 68.5784C122.57 59.3607 115.673 51.3865 105.748 47.0615C64.3141 60.442 35.1591 93.5553 27.7757 132.967Z" fill="white"/>
</mask>
<g mask="url(#mask1_302_700)">
<path d="M125.221 47.0615H17.7148V149.618H125.221V47.0615Z" fill="#FAFAFA"/>
</g>
<path fill-rule="evenodd" clip-rule="evenodd" d="M454.337 126.074C448.441 128.831 442.382 130.318 436.162 130.669C429.942 130.669 424.181 128.831 419.069 125.317C413.931 121.965 409.793 117.099 406.926 110.747C403.924 104.53 402.409 97.2315 402.409 89.1762C402.707 81.7426 403.762 75.201 405.601 69.2541C407.44 63.3343 409.82 58.4687 413.173 54.387C416.338 50.3052 420.151 47.2507 424.695 45.1152C429.076 42.9798 433.944 41.9255 439.38 41.9255C444.519 41.9255 449.82 42.9798 455.148 45.2504C460.287 47.548 464.668 51.4946 468.319 56.9549L469.563 59.2526L470.239 56.9549H470.402C470.429 56.6576 470.483 56.3062 470.537 55.9548L474.648 41.9255C464.181 35.9787 452.389 32.9512 438.758 32.9512C427.535 33.0863 418.015 34.9515 410.117 38.2763C402.22 41.6012 395.891 46.0073 391.348 51.3054C386.642 56.7927 383.315 62.7126 381.341 69.092C379.231 75.6065 378.204 82.121 378.204 88.6896C378.204 97.9613 379.989 105.665 383.477 112.234C386.966 118.775 391.645 123.965 397.406 127.885C403.167 131.831 409.522 134.724 416.338 136.562C423.153 138.211 430.131 139.157 436.946 139.157C449.36 139.157 462.396 136.859 476.352 132.426V91.2846H454.364L454.337 126.074Z" fill="#111827"/>
<path fill-rule="evenodd" clip-rule="evenodd" d="M366.033 125.776H331.794V88.23H347.399H365.276V77.9041H351.023H345.019H331.794V46.3316H336.797H366.033V35.5461H309.535V136.427H365.898C365.898 136.4 365.898 136.4 365.898 136.373L366.06 136.427L366.033 125.776Z" fill="#111827"/>
<path fill-rule="evenodd" clip-rule="evenodd" d="M270.346 137.319H293.065C291.523 127.588 290.306 118.478 289.251 110.098C288.034 101.638 286.979 93.366 285.925 85.3647C284.843 77.3094 284.085 69.5244 283.193 62.5774C282.436 55.5763 281.381 46.4938 280.191 35.5461H267.939C265.181 41.3038 262.179 47.548 258.852 54.1977C255.688 61.0366 252.767 66.6591 250.495 71.2274C248.223 75.7686 245.492 81.0938 242.327 87.1488C239.325 93.1227 236.269 99.2047 233.078 105.26C218.122 75.174 206.763 51.9541 199.163 35.5461H187.046C184.802 52.5488 182.368 70.038 179.798 87.9597C177.067 105.854 174.308 122.262 171.766 137.319H181.718L191.915 69.7407C193.591 73.2007 195.998 78.0663 199.19 84.4457C202.192 90.8521 204.788 96.1502 206.762 100.259C208.845 104.368 211.739 110.45 215.688 118.478C219.636 126.56 222.503 132.453 224.315 136.454H226.722H229.778C239.623 114.991 250.495 92.2036 262.476 68.1999L270.346 137.319Z" fill="#111827"/>
<path fill-rule="evenodd" clip-rule="evenodd" d="M558.245 137.021H582.911L541.72 34.1404H530.497L530.199 34.9513L488.441 137.021H500.909L512.674 106.476H530.226H547.157L558.245 137.021ZM530.226 97.0421H516.73L530.226 63.4963L530.524 62.7124L543.884 97.0151H530.226V97.0421Z" fill="#111827"/>
</svg>
