<svg width="936" height="120" viewBox="0 0 936 120" fill="none" xmlns="http://www.w3.org/2000/svg">
<path d="M59.3312 0.716148C47.6769 2.56989 36.6582 7.91923 27.7055 16.0227C22.1962 21.0543 15.7334 30.3759 13.4025 36.6256C12.5019 39.062 12.5019 39.062 13.7733 40.439C14.9917 41.7631 15.0447 41.7631 24.5271 41.7631H34.0095L33.6916 43.0342C32.7381 46.7947 32.2613 60.2475 32.8441 67.3447C33.1619 71.4229 33.5327 75.3422 33.6916 75.9778C34.0095 77.1959 34.0095 77.1959 26.2223 77.3548C21.5076 77.4607 18.2761 77.3019 18.0113 76.9841C17.5345 76.3485 15.8923 70.3636 15.8923 69.0925C15.8923 68.4039 16.5809 68.245 20.0243 68.245C24.3152 68.245 25.7985 67.7684 25.2687 66.6032C25.1098 66.1794 22.5141 61.4657 19.4416 56.0634C15.3625 48.8603 13.6674 46.265 12.9257 46.265C12.2371 46.265 10.33 49.0192 5.98609 56.3282C2.70169 61.8364 0 66.6561 0 66.9739C0 67.9273 1.37733 68.245 5.50933 68.245H9.37645L9.74727 71.0521C10.4889 77.7256 15.3625 89.0069 20.2362 95.5214C30.6191 109.345 45.346 117.713 62.8275 119.673C69.1314 120.361 74.5878 119.991 82.2161 118.296C99.5387 114.482 114.689 102.407 122.582 86.0938C125.337 80.4267 125.39 79.8441 123.271 78.4141C121.523 77.2489 120.993 77.1959 112.782 77.2489L104.094 77.3548L104.359 72.9059C104.783 66.0735 104.677 51.5085 104.2 46.371L103.724 41.7631H111.405H119.033L120.199 45.5765C122.053 51.9322 122.106 51.8262 116.861 51.8262C114.371 51.8262 112.2 52.0381 112.041 52.3559C111.67 52.9915 111.617 52.8326 118.292 64.6965C122 71.264 123.854 74.0711 124.437 73.9651C125.496 73.7533 137.362 53.5741 136.991 52.5677C136.78 52.0381 135.667 51.8262 132.489 51.8262C128.251 51.8262 128.198 51.8262 127.933 50.3433C124.437 32.9711 115.802 19.5713 102.293 10.4085C89.6325 1.77542 74.3759 -1.61426 59.3312 0.716148ZM69.3963 20.048V34.2952L70.9326 35.3545C72.3629 36.4138 73.2105 36.4667 84.3351 36.4667H96.2013L97.3138 34.9837L98.4262 33.5008L96.9959 28.9988C95.0359 23.0139 92.705 17.6646 90.0563 13.1097C88.8379 11.0441 87.9903 9.24332 88.1492 9.03147C88.3611 8.87258 88.8379 9.19036 89.2617 9.77296C90.9568 11.9974 95.9364 22.7491 97.8435 28.2573C100.492 36.149 100.492 36.149 109.869 36.4667C115.113 36.6786 117.338 36.9434 117.497 37.3671C117.656 37.8968 115.961 38.0556 110.292 38.0556C102.929 38.0556 102.876 38.0556 101.975 39.4327C101.181 40.7038 101.128 41.2335 101.764 45.4176C102.717 51.7733 102.611 65.1731 101.499 71.6877C100.651 76.7722 100.651 76.9841 101.605 78.3082C102.611 79.6323 102.77 79.6323 110.398 79.7912C120.622 79.95 120.728 80.9564 110.504 80.9564H102.929L100.916 82.5453C99.2208 83.8694 98.6381 84.9816 96.89 90.0661C93.9234 98.6463 86.8778 112.894 86.8778 110.298C86.8778 110.086 88.0962 107.544 89.5265 104.737C92.4401 99.123 96.6781 88.5831 97.2078 85.6701C97.4727 84.2401 97.2608 83.4986 96.4132 82.3864L95.3007 80.9564H84.0702H72.8926L71.1445 82.6512L69.3963 84.346V98.5403C69.3963 107.65 69.1844 112.735 68.8666 112.735C68.5487 112.735 68.3368 107.65 68.3368 98.5933V84.452L66.6416 82.7042L64.9465 80.9564H53.6629H42.3794L41.5318 82.3334C40.7372 83.5516 40.6842 84.0283 41.267 86.3587C42.2735 90.1191 45.1341 97.1103 48.5244 103.837C51.597 109.981 52.1797 112.841 49.372 107.862C46.1936 102.354 39.7307 86.9413 39.7307 84.9286C39.7307 84.5049 38.6712 83.4457 37.3998 82.5453L35.016 80.9564H27.3347C22.5141 80.9564 19.6005 80.7445 19.6005 80.4267C19.6005 80.1089 22.4611 79.8971 27.1758 79.8971H34.7511L36.1814 78.4141L37.6117 76.9311L36.7641 73.0118C35.6517 67.3976 35.1749 52.6207 36.0225 46.265C36.6052 41.3924 36.6052 41.0216 35.5987 39.6975C34.5922 38.3205 34.4863 38.3205 27.0699 38.1616C21.4016 38.0556 19.6005 37.8438 19.7594 37.3671C19.8654 36.9434 22.2492 36.6786 27.5996 36.4667C34.5922 36.2019 35.3868 36.096 36.9231 34.9308C38.0355 34.0834 38.6712 33.077 38.9361 31.753C40.0486 25.874 48.8953 7.86626 50.1137 9.08443C50.3256 9.24332 49.531 10.8852 48.3655 12.7389C45.6638 17.082 43.174 22.3784 41.267 27.9396C39.4658 33.183 39.4129 33.7126 40.7372 35.2486C41.7437 36.4667 41.9556 36.4667 53.557 36.4667H65.3703L66.8535 35.0367L68.3368 33.6067V19.4124C68.3368 10.0378 68.4957 5.27103 68.8666 5.48289C69.1844 5.69475 69.3963 11.15 69.3963 20.048ZM65.1584 20.6305V34.3482H54.2986C45.6109 34.3482 43.4389 34.1893 43.4389 33.6597C43.4389 32.2826 46.0346 25.3973 48.1536 21.0013C50.6434 16.0227 54.9343 10.0378 57.2652 8.34294C58.7485 7.33662 63.781 6.17142 64.7875 6.64809C64.9994 6.75403 65.1584 13.0567 65.1584 20.6305ZM76.9187 7.07181C79.0906 7.33662 79.7793 7.8133 82.2691 10.4615C86.8248 15.3871 92.2282 25.768 93.9764 32.8652L94.2942 34.3482H83.4345H72.5748V20.2598C72.5748 7.12477 72.6277 6.22439 73.5283 6.43624C74.0051 6.59513 75.5413 6.85995 76.9187 7.07181ZM43.8627 13.0038C43.7568 13.2686 42.6973 15.3342 41.5318 17.6646C39.3599 21.8487 37.135 27.6747 36.0225 32.0707L35.4398 34.3482H28.6061C24.792 34.3482 21.7195 34.1893 21.7195 34.0304C21.7195 33.077 27.8115 25.0795 31.0429 21.8487C35.4928 17.3998 44.8162 10.9911 43.8627 13.0038ZM101.923 18.0353C105.949 21.1602 110.716 26.4036 113.577 30.9055C114.636 32.4944 115.484 33.9774 115.484 34.0834C115.484 34.2423 112.411 34.3482 108.597 34.3482C102.187 34.3482 101.711 34.2952 101.711 33.3419C101.711 31.7 98.0554 21.7428 95.8305 17.3468C94.718 15.0693 93.7645 13.0567 93.7645 12.8978C93.7645 12.3682 98.1084 15.1223 101.923 18.0353ZM35.4398 85.829C35.7047 86.5176 36.6582 89.4306 37.5588 92.3436C38.5123 95.2566 40.3134 99.7585 41.5848 102.354C42.9092 104.949 43.9157 107.173 43.8097 107.226C43.227 107.809 36.1285 102.724 31.9435 98.7522C27.2818 94.3562 20.9778 85.9879 21.5076 85.0875C21.6665 84.8227 24.739 84.6638 28.3942 84.6638C34.7511 84.6638 35.016 84.7168 35.4398 85.829ZM65.0524 99.07L65.1584 113.264H63.4632C59.0133 113.264 56.4176 111.464 52.1267 105.479C48.5244 100.5 43.4389 88.9009 43.4389 85.7231C43.4389 84.6638 43.6508 84.6638 54.1927 84.7698L64.8935 84.9286L65.0524 99.07ZM94.0294 86.3587C93.2347 90.0661 89.4206 98.9111 86.9308 102.936C83.9113 107.862 79.6203 112.311 77.5014 112.788C76.7068 112.999 75.2235 113.158 74.3229 113.211L72.5748 113.264V98.9641V84.6638H83.4875H94.4002L94.0294 86.3587ZM115.696 85.0875C116.173 85.882 110.187 94.0384 106.107 98.0107C102.028 102.036 94.4531 107.597 93.6585 107.12C93.4466 106.962 93.9764 105.743 94.824 104.366C96.5721 101.559 99.5387 94.0384 100.916 89.1658C101.393 87.4179 101.87 85.6701 101.975 85.2994C102.24 84.5579 115.219 84.346 115.696 85.0875Z" fill="#111827"/>
<path d="M39.0131 39.7013C37.2146 41.3494 37.0559 41.7215 36.527 45.9747C35.5219 54.3747 35.998 66.9215 37.5849 74.4177C38.0609 76.4911 38.5899 77.3949 40.071 78.5114L41.9752 80H53.4007C64.7734 80 64.8262 80 66.4131 78.6709L68 77.3949L54.4587 77.3418H40.9173L40.5999 75.7468C40.3884 74.8962 39.9652 70.962 39.6478 66.9747C39.066 59.957 39.5949 47.5696 40.7057 43.5291L41.076 41.9873L54.5116 41.8278L67.9471 41.7215L66.1486 39.8608L64.3502 38H52.6602H40.9173L39.0131 39.7013Z" fill="#111827"/>
<path d="M70.9411 39.3823C70.0244 40.1266 69.2696 40.9772 69.2696 41.243C69.2696 41.5089 74.9849 41.7215 82.6952 41.7215H96.1209L96.4444 43.157C97.2532 46.9848 97.8463 54.2152 97.8463 59.638C97.8463 65.8051 96.8757 76.2253 96.2826 76.9165C96.067 77.1291 89.8664 77.3418 82.4796 77.3949H69L70.6175 78.7241C72.2351 80 72.3429 80 84.0971 80H95.9591L98.008 78.2456C99.8952 76.6506 100.111 76.2253 100.758 72.0253C101.998 64.5823 102.321 56.7671 101.674 50.1747C100.812 41.1899 100.704 40.924 98.3315 39.3823C96.2826 38 96.2287 38 84.4206 38H72.6125L70.9411 39.3823Z" fill="#111827"/>
<path d="M66.3056 54.246C61.8134 58.2938 57.6383 62.1285 57.057 62.7144L56 63.7796L61.7606 63.4068C66.6227 63.0872 67.4683 63.1405 67.0455 63.7796C66.8341 64.2057 65.3015 66.4426 63.6632 68.7861C59.5409 74.698 59.4352 74.911 62.1305 72.7273C63.3989 71.7154 68.2082 67.8806 72.8061 64.3122C77.404 60.6905 81.1035 57.7079 80.9978 57.6014C80.8921 57.5481 77.9854 57.8144 74.4973 58.134C71.0092 58.5068 68.0497 58.7198 67.944 58.6133C67.8383 58.5068 69.3709 55.897 71.3263 52.8079C73.2818 49.7188 74.8144 47.1091 74.7087 47.0025C74.603 46.896 70.7978 50.1449 66.3056 54.246Z" fill="#111827"/>
<path d="M559.333 22.3333C559.333 23.1333 547.067 23.6667 525.067 23.6667C492.133 23.6667 490.933 23.8 493.067 26.0667C495.067 28.2 495.333 32.6 495.333 60.4667C495.333 83.5333 494.933 92.8667 493.733 94.0667C492.533 95.2667 499.6 95.6667 525.733 95.6667C556.133 95.6667 559.333 95.9333 560.533 97.9333C561.6 99.8 561.867 98.0667 562 91.1333C562 83.8 561.6 82.2 560.4 83.4C559.333 84.4667 551.6 85 534.4 85H509.867L510.267 74.6L510.667 64.3333L525.467 63.9333C537.733 63.6667 540.8 63.9333 542.533 65.6667C544.533 67.6667 544.667 67.1333 544.533 58.7333C544.533 53.8 544.133 50.4667 543.733 51.2667C543.333 52.6 538.533 53 526.533 53H510V44.3333V35.6667H533.733C550.4 35.6667 558 36.2 559.067 37.2667C560.267 38.4667 560.667 36.8667 560.667 29.9333C560.667 25 560.4 21 560 21C559.6 21 559.333 21.5333 559.333 22.3333Z" fill="#111827"/>
<path d="M175.867 26.4667C179.067 31.0001 179.067 90.3334 175.867 93.5334C174 95.5334 176.533 95.6667 203.6 95.6667C231.867 95.6667 233.733 95.5334 239.333 92.7334C252.133 86.2001 253.867 69.2667 242.533 61.6667L238.4 58.8667L242.8 53.9334C246.533 49.9334 247.333 47.9334 247.333 43.4001C247.333 36.3334 243.6 29.9334 237.733 26.8667C234.133 24.8667 228.267 24.4667 203.467 23.9334L173.6 23.2667L175.867 26.4667ZM229.733 37.8001C233.467 40.3334 233.6 46.7334 230 50.3334C227.6 52.7334 225.6 53.0001 210 53.0001H192.667V44.3334V35.6667H209.733C222.933 35.6667 227.333 36.0667 229.733 37.8001ZM229.733 66.2001C236.267 69.8001 236 80.3334 229.2 83.5334C227.333 84.3334 218.8 85.0001 209.333 85.0001H192.667V74.2001V63.4001L209.733 63.9334C219.733 64.2001 227.867 65.1334 229.733 66.2001Z" fill="#111827"/>
<path d="M396.8 42.3334C396.8 47.1334 397.2 50.2 397.6 49.2667C398 48.2 401.6 47.6667 408.8 47.6667H419.333V70.8667C419.333 88.2 418.933 94.3334 417.733 94.7334C416.8 95.1334 420.533 95.5334 426 95.5334C433.6 95.6667 435.467 95.2667 434.267 94.0667C433.2 93 432.667 85.6667 432.667 70.0667V47.6667H443.067C448.8 47.6667 454 48.2 454.8 49C455.6 49.8 455.867 47.6667 455.6 43.2667L455.067 36.3334L427.067 36.7334C405.2 37 398.667 36.7334 397.733 35.4C397.2 34.3334 396.8 37.4 396.8 42.3334Z" fill="#111827"/>
<path d="M711.333 35.6668C711.333 36.4668 701.067 37.0002 683.333 37.0002C656 37.0002 655.333 37.1335 656.667 39.5335C658.667 43.4002 658.4 92.0668 656.4 94.0668C655.2 95.2668 661.067 95.6668 682.8 95.6668C702.8 95.6668 711.2 96.0668 712.4 97.2668C713.6 98.4668 714 97.1335 714 91.0002C714 84.8668 713.6 83.5335 712.4 84.7335C711.333 85.8002 704.667 86.3335 691.067 86.3335H671.2L671.6 78.7335L672 71.0002L683.467 70.6002C692.667 70.3335 695.467 70.7335 697.2 72.3335C699.2 74.3335 699.333 73.8002 699.333 66.2002C699.333 59.6668 698.933 58.2002 697.733 59.4002C696.667 60.4668 691.6 61.0002 683.733 61.0002H671.333V54.3335V47.6668H691.2C705.867 47.6668 711.333 48.0668 711.733 49.2668C712.133 50.2002 712.533 47.2668 712.533 42.6002C712.667 38.0668 712.4 34.3335 712 34.3335C711.6 34.3335 711.333 34.8668 711.333 35.6668Z" fill="#111827"/>
<path d="M284.933 37.0001C266.267 40.8667 256.4 56.0667 259.867 75.1334C261.333 82.2001 271.2 92.3334 279.6 95.1334C288.667 98.0667 304.533 97.2667 312.267 93.2667C334.133 82.0667 333.2 49.4001 310.667 39.5334C304 36.6001 292.4 35.5334 284.933 37.0001ZM300.8 47.6667C303.333 48.3334 307.2 50.7334 309.333 53.0001C312.667 56.4667 313.333 58.3334 313.733 65.4001C314.267 75.1334 311.467 80.7334 304.4 84.4667C298.133 87.8001 287.067 87.6667 282.4 84.2001C273.2 77.2667 270.533 68.0667 275.067 57.8001C279.333 48.4667 289.2 44.4667 300.8 47.6667Z" fill="#111827"/>
<path d="M825.333 36.4667C814.533 39.2667 809.733 41.6667 804.8 47C789.733 63.2667 796.8 89.1334 817.867 95.2667C827.2 97.9334 843.6 97 854.667 93.1334C864 89.8 865.867 88.3334 863.6 86.0667C861.6 84.0667 861.467 71.1334 863.333 67.5334C864.667 65.1334 864.133 65 850.267 65C840.8 65 835.333 64.4667 834.267 63.4C833.067 62.2 832.667 63.4 832.667 69C832.667 74.6 833.067 75.8 834.267 74.6C835.2 73.6667 839.333 73 843.6 73H851.333V78.2C851.333 82.7334 850.8 83.5334 847.067 85.1334C841.067 87.6667 826.267 87.2667 821.067 84.6C805.067 76.2 807.6 52.3334 825.067 47.5334C832.533 45.5334 843.467 47.1334 849.333 51L854 54.2L857.333 47.6667L860.667 41H857.467C855.733 41 851.867 40.0667 848.8 39.1334C842.8 36.8667 829.467 35.5334 825.333 36.4667Z" fill="#111827"/>
<path d="M339.867 39.1334C341.6 40.8667 342 45.2667 342 66.8667C342 85 341.6 92.8667 340.4 94.0667C339.2 95.2667 344.533 95.6667 364.267 95.6667C385.733 95.6667 390.133 96.0667 391.867 97.8C393.867 99.6667 394 99.1334 394 91.5334C394 85 393.6 83.5334 392.4 84.7334C391.333 85.8 385.067 86.3334 373.067 86.3334H355.333V63.2667C355.333 47.1334 355.867 39.6667 356.933 38.6C358.133 37.4 356.267 37 348.133 37C338.8 37 338 37.1334 339.867 39.1334Z" fill="#111827"/>
<path d="M575.067 38.6001C577.333 40.8667 577.333 91.8001 575.067 94.0667C573.867 95.2667 575.467 95.6667 582.667 95.6667C589.867 95.6667 591.467 95.2667 590.267 94.0667C589.2 93.0001 588.667 86.7334 588.667 74.4667V56.3334L606.667 74.3334C616.533 84.2001 624.4 93.1334 624 93.9334C623.6 95.2667 625.867 95.6667 632.933 95.6667C640.4 95.6667 642.133 95.2667 640.933 94.0667C639.733 92.8667 639.333 84.8667 639.333 66.0667C639.333 42.4667 639.6 39.6667 641.733 38.4667C643.467 37.4001 641.467 37.1334 634 37.0001C626.4 37.0001 624.533 37.4001 625.733 38.6001C627.467 40.3334 628.133 74.3334 626.267 74.3334C625.733 74.3334 617.867 66.8667 608.8 57.8001C594.533 43.4001 592.4 40.8667 593.867 39.1334C595.467 37.2667 594.533 37.0001 584.533 37.0001C575.867 37.0001 573.867 37.4001 575.067 38.6001Z" fill="#111827"/>
<path d="M725.867 38.8667C726.933 40.2001 727.333 48.7334 727.067 68.2001L726.667 95.6667H735.2C742.267 95.6667 743.467 95.4001 742.133 93.8001C741.2 92.6001 740.667 88.2001 740.933 82.0667L741.333 72.3334L748.8 71.9334L756.133 71.5334L763.067 81.9334C766.933 87.5334 769.733 93.0001 769.467 93.9334C768.933 95.2667 771.2 95.6667 779.467 95.6667H790.133L786.933 92.6001C785.067 91.0001 780.8 85.6667 777.333 80.7334L771.2 71.6667L776.533 69.5334C784.267 66.4667 787.333 62.0667 787.333 54.2001C787.333 45.5334 783.067 40.3334 773.867 38.4667C770.267 37.6667 757.6 37.0001 745.733 37.0001C727.6 37.0001 724.533 37.2667 725.867 38.8667ZM771.867 49.4001C773.467 50.6001 774.133 52.4667 773.733 55.0001C773.067 60.8667 768.8 62.4667 754 62.0667L741.333 61.6667L740.933 54.6001L740.533 47.6667H755.067C764.8 47.6667 770.267 48.2001 771.867 49.4001Z" fill="#111827"/>
<path d="M872.933 39.6667C874.8 41 880.8 48.6 886.533 56.3334L896.667 70.3334V82.2C896.667 90.4667 896.133 94.3334 895.067 94.7334C894.133 95.1334 897.867 95.5334 903.333 95.5334C910.933 95.6667 912.8 95.2667 911.6 94.0667C910.667 93.1334 910 88.2 910 81.4V70.3334L921.2 55.1334C927.467 46.7334 933.6 39.2667 934.933 38.4667C936.8 37.4 934.4 37.1334 924.933 37C913.067 37 912.667 37.1334 914.267 39.6667C915.733 41.9334 915.2 43.2667 910.533 49.8C907.6 53.9334 904.8 57.4 904.133 57.5334C903.6 57.6667 900.667 54.2 897.6 49.9334C892.933 43.2667 892.4 41.8 893.733 39.5334C895.333 37.1334 894.933 37 882.533 37H869.6L872.933 39.6667Z" fill="#111827"/>
</svg>
