<svg width="289" height="263" viewBox="0 0 289 263" fill="none" xmlns="http://www.w3.org/2000/svg">
<path d="M141.214 0.827598C138.613 1.97666 135.892 5.72624 134.32 10.262C133.594 12.4392 132.747 14.7373 132.445 15.4026C131.598 17.2774 130.63 26.228 130.63 32.1547C130.63 37.7186 131.598 48.6045 132.263 50.1769C132.687 51.2655 132.808 51.7493 133.654 57.4342C135.106 67.4129 135.287 68.9853 134.864 69.2272C134.38 69.5296 123.192 73.642 116.721 75.9402C114.544 76.6659 110.068 78.2988 106.742 79.5083C103.416 80.7783 99.1824 82.1088 97.3681 82.5322C90.8365 84.0441 79.4064 89.1242 73.1772 93.3576C69.1857 96.0186 64.1056 100.978 62.8961 103.397C61.6261 105.997 60.9608 109.928 61.747 110.352C62.0494 110.594 62.2913 111.743 62.2913 112.952C62.3518 120.633 70.7581 136.417 82.7931 151.476C98.9405 171.615 113.455 184.618 127.909 191.875C133.11 194.475 139.642 196.531 142.726 196.531C148.169 196.531 152.765 192.419 154.821 185.706C155.487 183.589 156.333 181.473 156.636 181.11C156.938 180.747 157.543 176.755 157.966 172.22C158.692 163.753 158.027 150.025 156.696 145.247C156.333 144.098 155.668 140.288 155.184 136.78C153.612 125.713 153.188 127.043 158.752 125.108C161.413 124.201 166.312 122.447 169.638 121.238C184.999 115.613 190.926 113.557 192.317 113.375C196.127 113.013 210.279 106.602 215.964 102.732C220.56 99.6472 224.491 95.7766 225.942 93.0552C227.212 90.5151 227.999 86.5236 227.333 86.1003C227.031 85.9189 226.789 84.7698 226.789 83.4998C226.789 80.5969 224.249 72.7953 221.769 68.0177C212.879 50.9026 191.229 25.1999 176.291 13.8907C161.897 3.00477 147.987 -2.13578 141.214 0.827598ZM164.256 51.3865C168.792 53.9265 172.481 57.0108 176.714 61.849C181.068 66.7476 191.712 82.4112 191.712 83.8627C191.712 84.286 192.015 84.6489 192.378 84.6489C192.74 84.6489 192.922 85.0117 192.74 85.3746C192.619 85.7979 192.982 87.1889 193.648 88.4589C196.43 94.0228 196.248 100.675 193.224 104.364C190.382 107.751 189.656 108.235 182.096 111.198C177.924 112.831 171.513 115.432 167.824 117.004C155.789 122.024 153.551 122.931 153.309 122.628C152.765 122.145 149.197 102.671 149.439 101.522C149.681 100.191 148.774 94.9904 147.866 92.8737C147.443 91.8456 146.475 87.8541 145.75 84.0441C144.661 78.3592 144.48 75.4563 144.661 68.32C144.843 60.3371 144.964 59.2485 146.475 56.1037C148.653 51.4469 150.346 50.4793 156.817 50.2374C161.111 50.1164 162.26 50.2979 164.256 51.3865ZM136.376 75.0935C136.557 76.1821 137.041 78.6011 137.343 80.4155C137.646 82.2298 138.19 84.9512 138.553 86.4632C138.855 87.9751 139.279 90.8175 139.4 92.8133C139.763 98.1957 140.246 101.038 141.214 103.397C144.238 111.017 145.629 130.611 143.573 137.627C142.242 142.284 138.916 145.731 135.711 145.791C134.441 145.852 132.142 145.912 130.63 145.973C122.285 146.396 110.733 135.208 98.9405 115.19C97.489 112.771 96.4004 110.654 96.5214 110.473C96.6423 110.352 96.098 108.779 95.3118 106.965C93.437 102.732 92.8928 99.2843 93.679 96.3209C94.6466 92.8133 98.2147 88.5194 101.178 87.3099C102.569 86.7656 110.794 83.3788 119.442 79.8107C128.09 76.1821 135.348 73.2187 135.59 73.2187C135.771 73.1582 136.134 74.0654 136.376 75.0935Z" fill="#111827"/>
<path d="M279.948 203.607C279.041 204.696 278.981 205.664 279.283 230.52L279.404 245.518L281.098 247.332C283.154 249.63 286.54 250.356 288.052 248.844C289.685 247.272 289.262 246.365 286.359 244.913L284.545 243.946L284.363 224.351C284.242 207.175 284.121 204.635 283.214 203.668C282.005 202.337 280.977 202.277 279.948 203.607Z" fill="#111827"/>
<path d="M207.739 205.482C197.941 206.51 189.838 214.13 188.023 224.109C186.39 232.999 191.894 243.28 200.602 247.635C203.687 249.207 204.775 249.388 209.553 249.449C214.331 249.449 215.48 249.207 218.806 247.695C222.677 245.881 224.007 244.49 223.402 242.857C222.737 241.164 221.225 241.285 217.294 243.22C208.283 247.635 198.788 244.127 194.555 234.693C192.801 230.883 192.861 223.928 194.615 220.118C196.188 216.67 199.393 213.284 202.719 211.53C206.348 209.655 212.637 209.655 216.75 211.53C220.378 213.163 222.072 212.86 221.83 210.562C221.528 207.72 213.605 204.877 207.739 205.482Z" fill="#111827"/>
<path d="M1.08859 206.268C0.0604771 206.813 0 208.506 0 227.314C0 243.946 0.181431 247.937 0.846679 248.481C1.39097 248.965 5.86628 249.147 15.7845 249.026L29.9362 248.844V246.728V244.611L17.7198 244.429L5.44294 244.309V236.749V229.189L17.7198 229.068L29.9362 228.887V226.77V224.653L17.7198 224.472L5.44294 224.351V217.699V211.046H17.115C25.4004 211.046 28.9685 210.865 29.5128 210.32C30.42 209.413 30.42 207.236 29.5128 206.329C28.6057 205.422 2.66099 205.361 1.08859 206.268Z" fill="#111827"/>
<path d="M169.336 208.627C168.368 209.594 168.126 210.623 168.126 214.009V218.243L166.251 218.424C165.163 218.545 164.014 219.089 163.651 219.634C162.683 221.206 163.893 222.778 166.251 223.02L168.126 223.202V232.394C168.126 243.159 168.61 245.518 171.392 247.635C173.025 248.844 174.053 249.146 177.077 249.146C180.161 249.146 180.887 248.965 181.431 247.937C182.52 245.881 181.189 244.308 178.407 244.308C174.355 244.308 174.114 243.704 174.295 232.939L174.476 223.444L178.045 223.141C182.036 222.778 183.487 221.569 182.278 219.634C181.794 218.908 180.645 218.545 177.863 218.424L174.174 218.243V213.767C174.174 209.836 173.993 209.171 172.844 208.385C171.09 207.175 170.787 207.175 169.336 208.627Z" fill="#111827"/>
<path d="M264.043 213.042C263.075 213.767 263.015 215.158 263.196 229.975L263.378 246.123L264.95 247.695C266.885 249.63 270.937 250.356 272.086 248.965C273.054 247.695 272.389 245.518 270.998 245.518C270.393 245.518 269.486 245.034 268.942 244.429C268.034 243.462 267.913 241.405 267.913 228.403C267.913 214.312 267.853 213.465 266.764 212.86C265.313 212.074 265.313 212.074 264.043 213.042Z" fill="#111827"/>
<path d="M82.6722 217.578C81.8255 218.485 81.644 220.118 81.644 226.71C81.644 231.124 81.9464 235.237 82.2488 235.902C82.9745 237.233 85.817 237.475 86.966 236.325C87.4498 235.842 87.6918 232.818 87.6918 226.649C87.6918 218.485 87.5708 217.699 86.5427 217.094C84.8493 216.187 83.7607 216.368 82.6722 217.578Z" fill="#111827"/>
<path d="M36.4073 218.424C35.0163 219.815 35.742 221.267 40.8221 227.435C45.237 232.757 45.8417 233.786 45.1765 234.572C44.7531 235.116 42.6969 237.535 40.5802 240.015C35.2582 246.304 34.8349 246.97 35.6816 248.481C36.1049 249.328 36.9516 249.751 38.1007 249.751C39.6126 249.751 40.5802 248.905 44.5112 244.127C47.0513 241.103 49.2889 238.503 49.5308 238.382C49.7727 238.321 52.1313 240.801 54.7319 243.946C58.6629 248.602 59.8724 249.691 61.2634 249.751C62.4729 249.751 63.1382 249.328 63.622 248.24C64.4082 246.546 64.7711 247.151 58.3605 239.47C56.3647 237.051 54.49 234.753 54.1876 234.33C53.7642 233.725 55.0342 231.85 58.5419 227.677C63.4406 221.872 64.2872 219.936 62.7753 218.424C61.1424 216.791 59.57 217.699 55.3366 222.658C52.978 225.319 50.8008 227.98 50.438 228.464C49.8937 229.189 48.9865 228.403 45.3579 223.988C42.8783 221.025 40.5802 218.424 40.2174 218.182C39.2497 217.457 37.1935 217.638 36.4073 218.424Z" fill="#111827"/>
<path d="M115.269 218.545C106.44 221.871 102.085 232.153 106.077 240.377C108.012 244.248 109.161 245.578 112.487 247.695C114.967 249.268 115.693 249.449 120.652 249.449C129.058 249.449 134.199 246.969 132.445 243.704C131.598 242.192 130.51 242.192 126.397 243.764C119.926 246.244 114.06 244.308 111.278 238.805L110.068 236.446H121.559C132.989 236.446 133.11 236.446 134.561 234.934C136.315 233.241 136.436 231.608 135.166 227.919C132.989 221.811 128.211 218.303 121.68 217.88C119.079 217.759 116.781 218.001 115.269 218.545ZM125.006 223.504C127.365 224.653 129.723 227.496 130.328 229.915L130.751 231.608H120.41C114.725 231.608 110.068 231.487 110.068 231.306C110.068 230.399 112.548 226.286 113.818 225.137C116.66 222.476 121.317 221.811 125.006 223.504Z" fill="#111827"/>
<path d="M141.274 218.666C140.428 219.452 140.307 221.69 140.307 233.483C140.307 241.95 140.549 247.877 140.911 248.602C141.335 249.328 142.181 249.751 143.33 249.751C144.48 249.751 145.326 249.328 145.75 248.602C146.052 247.937 146.354 243.401 146.354 238.2C146.354 230.036 146.475 228.826 147.564 227.073C149.076 224.593 152.1 223.142 155.607 223.142C158.934 223.142 160.143 221.992 159.175 219.815C158.571 218.485 158.087 218.303 155.124 218.303C151.555 218.303 149.983 218.848 147.745 220.904L146.354 222.113V220.843C146.354 219.271 144.842 217.699 143.33 217.699C142.726 217.699 141.758 218.122 141.274 218.666Z" fill="#111827"/>
<path d="M237.675 218.606C226.305 222.174 222.798 237.172 231.567 245.095C235.558 248.723 237.433 249.388 242.816 249.449C246.626 249.449 248.319 249.147 250.859 247.998C253.52 246.788 254.004 246.365 254.004 244.913C254.004 242.494 252.553 242.252 248.259 244.006C243.42 245.881 241.727 245.881 237.857 243.946C234.893 242.494 232.958 240.256 231.93 237.112C231.567 235.842 231.567 235.842 243.239 235.842C256.967 235.842 257.391 235.721 257.149 231.366C256.967 225.984 252.553 220.601 246.868 218.666C243.541 217.517 241.304 217.517 237.675 218.606ZM246.505 223.081C249.226 224.351 251.827 227.314 252.492 229.915L252.915 231.608H242.271C236.405 231.608 231.627 231.487 231.627 231.306C231.627 230.036 233.623 226.77 235.317 225.198C238.885 221.871 242.392 221.206 246.505 223.081Z" fill="#111827"/>
<path d="M73.6611 222.537C72.7539 223.202 71.3629 225.137 70.5163 226.891C68.9438 230.036 68.9438 230.036 68.9438 245.941C68.9438 261.363 69.0043 261.847 70.2139 262.452C71.1815 262.996 71.7863 262.935 72.9353 262.149C74.3263 261.242 74.3868 261 74.3868 253.924C74.3868 249.933 74.5682 246.727 74.8706 246.848C79.5273 249.268 81.7045 249.933 84.7284 249.933C91.1389 249.933 98.0333 245.155 99.6662 239.531C101.481 233.543 99.6662 225.681 95.8562 222.658C93.9209 221.085 91.6228 220.904 91.0785 222.295C90.4737 223.807 90.6551 224.23 92.1671 225.742C95.9166 229.492 96.7633 234.753 94.4652 239.289C92.9533 242.252 90.7761 243.946 87.2684 244.853C77.1083 247.574 69.4881 234.632 76.564 226.77C78.0154 225.198 78.6202 223.928 78.4992 223.02C78.2573 221.146 75.7173 220.904 73.6611 222.537Z" fill="#111827"/>
</svg>
