<svg width="543" height="143" viewBox="0 0 543 143" fill="none" xmlns="http://www.w3.org/2000/svg">
<path d="M35.7736 0.47219C34.7554 1.15098 35.1796 4.03584 36.3675 4.03584C36.6221 4.03584 38.4888 5.47827 40.5251 7.34495C43.41 10.0601 44.0888 11.1631 44.0888 13.6238C44.0888 18.1207 43.3251 19.3086 40.5251 19.3086C39.1675 19.3086 35.519 20.6662 32.4645 22.2783C29.4099 23.8905 26.5251 25.248 26.1857 25.248C25.7614 25.248 24.1493 23.8905 22.4523 22.2783C18.8887 18.6298 18.719 16.5086 21.6887 10.654C26.8645 0.387341 15.325 4.79948 9.21591 15.4056C6.41589 20.4117 5.99165 25.9268 8.02802 30.9329C9.80985 35.1754 9.64015 36.8723 7.17953 38.4845C5.22801 39.7572 5.05831 40.3511 5.05831 46.036C5.05831 53.2482 3.19164 63.8543 1.32496 67.5876C-1.47505 72.9331 0.306778 80.3998 5.31286 84.8119C12.8644 91.2604 19.9917 92.8726 27.8826 89.818C31.9554 88.121 32.0402 88.121 33.4827 89.7332C34.8403 91.2604 34.9251 92.0241 33.9918 97.709C32.4645 107.127 34.1615 116.97 39.5069 128.509C43.0706 136.4 45.8706 140.218 49.2646 142C52.404 143.612 53.2525 143.018 51.9797 139.964C51.4706 138.691 50.0282 135.297 48.7555 132.327C47.5676 129.358 45.7858 123.842 44.7676 120.109C43.0706 113.151 42.9857 109.333 44.5979 91.6847C45.1918 85.5756 43.0706 79.8059 39.5918 77.4301C37.7251 76.2422 36.7069 76.1574 32.0402 77.0058C29.1554 77.5998 25.422 78.618 23.8099 79.2968C20.6705 80.5695 19.5675 80.1453 13.4583 74.6301L11.2523 72.6786L12.8644 69.3694C14.7311 65.5513 16.8523 54.7754 16.9372 48.5815C16.9372 44.5087 17.1917 43.9996 21.6038 39.6724C24.6584 36.6178 27.0342 35.0057 28.5614 34.9208C29.919 34.836 33.7372 33.5632 37.1312 32.036C40.61 30.5935 45.2767 29.1511 47.4827 28.8965C55.6282 27.9632 68.1858 31.8663 79.0465 38.739C82.1011 40.6057 84.9859 42.2178 85.5799 42.2178C89.6526 42.2178 80.5738 34.1572 71.495 29.6602C67.0828 27.4541 66.998 27.3693 66.998 23.5511C66.998 15.2359 61.1434 7.68434 51.3009 3.1025C45.9555 0.641887 37.6403 -0.800543 35.7736 0.47219Z" fill="#111827"/>
<path d="M368.466 17.2722C360.405 20.2419 354.466 28.2177 352.684 38.3996C351.835 43.6602 351.581 43.9148 348.526 45.1875C346.32 46.036 345.302 46.9693 345.302 48.1572C345.302 49.5996 345.896 49.8542 348.696 49.8542H352.09V68.2664C352.09 78.4482 351.751 87.1877 351.411 87.7816C351.072 88.2907 349.629 88.8847 348.272 89.0544C346.235 89.2241 345.642 89.7331 345.472 91.5998L345.217 93.9756H359.217H373.302V91.4301C373.302 89.0544 373.133 88.8847 369.993 88.8847C368.211 88.8847 366.26 88.3756 365.751 87.6968C365.072 86.9331 364.817 81.0786 364.987 68.4361L365.242 50.2784L372.284 50.0239L379.242 49.7693V46.8845V43.9148H372.03H364.817V38.9087C364.817 32.6299 366.175 25.5026 367.872 22.9571L369.145 20.9207L374.066 25.1632C376.781 27.5389 379.581 29.4905 380.26 29.4905C382.296 29.4905 385.181 25.7571 385.181 23.042C385.181 17.1874 376.611 14.3025 368.466 17.2722Z" fill="#111827"/>
<path d="M319.678 19.0541C313.823 20.8359 313.06 21.345 313.06 23.2117C313.06 25.0784 313.399 25.2481 316.878 25.2481H320.696V33.5632V41.8784H312.041C302.114 41.8784 297.872 43.236 292.102 48.4118C281.072 58.424 280.732 79.721 291.423 89.6483C298.72 96.3514 307.969 96.3514 317.981 89.7332L320.696 87.8665V90.9211V93.9756H330.454H340.211V91.8544C340.211 90.2423 339.617 89.6483 337.92 89.2241C336.563 88.9695 335.035 88.6301 334.526 88.3756C333.678 88.121 333.423 80.2301 333.423 52.3997V16.7632L329.86 16.848C327.823 16.9329 323.241 17.8662 319.678 19.0541ZM319.763 48.5815C320.357 48.9209 320.696 55.1997 320.696 66.7391V84.4725L316.963 85.4059C311.617 86.6786 309.835 86.5938 305.763 84.5574C302.878 83.1998 301.605 81.8422 299.823 78.1937C297.787 74.0361 297.617 72.8483 297.956 66.1452C298.55 53.1633 304.066 46.7997 314.078 47.5633C316.708 47.8178 319.254 48.2421 319.763 48.5815Z" fill="#111827"/>
<path d="M522.891 19.0541C516.782 21.0056 515.848 21.5147 515.848 23.2117C515.848 24.9086 516.357 25.1632 519.921 25.4177C523.4 25.6723 523.909 25.9268 523.824 27.539C523.824 28.642 523.739 32.2905 523.654 35.6844L523.485 41.8784H514.83C506.43 41.7936 505.836 41.9633 500.66 44.7633C490.733 50.1087 486.491 58.5936 487.169 71.9149C487.424 78.1089 487.933 79.8907 490.139 83.8786C496.418 95.1635 507.363 97.8786 518.818 91.0059C523.654 88.0362 524.503 88.2059 524.079 91.8544C523.909 93.4665 524.503 93.5514 533.497 93.8059L543 94.0604V91.9392C543 90.2422 542.406 89.6483 540.709 89.2241C536.042 88.121 536.212 89.5635 536.212 51.8906V16.7631L533.073 16.848C531.291 16.848 526.709 17.8662 522.891 19.0541ZM521.618 48.4118C523.57 49.43 523.57 49.5997 523.739 66.824L523.909 84.218L519.497 85.4059C513.303 87.018 509.4 86.0847 505.582 82.0968C500.745 77.0058 499.303 68.3512 501.933 59.2724C503.46 53.8421 505.073 51.5512 509.145 49.0906C512.454 47.0542 518.564 46.7148 521.618 48.4118Z" fill="#111827"/>
<path d="M115.362 26.0117C115.362 28.3874 115.616 28.642 118.162 28.642C119.689 28.642 121.386 29.0662 121.98 29.6602C122.744 30.4238 122.998 38.0602 122.998 58.933C122.998 85.9149 122.913 87.1877 121.386 88.0362C120.453 88.4604 118.756 88.8847 117.568 88.8847C115.701 88.8847 115.362 89.2241 115.362 91.4301V93.9756H134.283C155.241 93.9756 160.756 93.1271 166.611 89.0544C168.477 87.7816 170.853 85.0665 171.956 82.9452C173.738 79.721 173.992 78.1937 173.738 72.7634C173.483 67.5876 173.059 65.8906 171.362 63.5997C168.901 60.2057 164.404 57.7451 159.483 56.9815L155.92 56.3876L158.72 55.1997C166.441 51.9754 169.92 47.0542 169.92 39.5026C169.835 32.7147 167.883 29.6602 161.604 26.5208L156.514 23.9753L135.98 23.7207L115.362 23.3814V26.0117ZM150.15 30.7632C154.053 32.7996 155.665 35.8541 155.58 41.2845C155.58 50.2784 150.574 54.8603 141.071 54.9451H136.574V42.3875C136.574 35.4299 136.829 29.4905 137.253 29.1511C138.186 28.1329 147.265 29.3208 150.15 30.7632ZM153.289 62.6664C155.326 63.6846 157.532 65.5512 158.21 66.9088C160.077 70.3876 159.823 78.5331 157.786 81.8422C155.071 86.3392 152.441 87.4422 144.126 87.8665L136.574 88.2059V74.5452V60.8845H143.107C147.944 60.8845 150.574 61.3088 153.289 62.6664Z" fill="#111827"/>
<path d="M213.786 41.9632C212.429 42.4723 207.253 46.5451 203.435 50.1087L201.059 52.3148V47.3087V42.2178H197.92C196.223 42.2178 191.641 43.236 187.738 44.5087C181.629 46.5451 180.695 47.0542 180.695 48.7512C180.695 50.533 181.12 50.7027 184.514 50.7027H188.332L188.162 69.5391L187.908 88.4604L184.768 88.715C181.798 88.9695 181.544 89.2241 181.544 91.515V93.9756H196.053H210.477L210.223 91.5998C209.968 89.5634 209.544 89.3089 206.574 89.0544C204.708 88.8847 202.756 88.3756 202.162 87.8665C201.314 87.1877 201.059 83.0301 201.059 71.9997V56.9815L204.029 55.5391C208.017 53.6724 211.411 53.7572 214.041 55.7936C215.229 56.7269 217.35 57.4906 218.793 57.4906C221.168 57.4906 221.423 57.236 221.423 54.6906C221.423 53.2481 221.677 50.0239 221.932 47.5633C222.526 42.7269 223.035 43.236 216.332 41.7935C215.653 41.6238 214.465 41.7087 213.786 41.9632Z" fill="#111827"/>
<path d="M244.502 42.3028C236.271 43.7452 229.059 49.0907 229.059 53.6725C229.059 56.4726 231.35 57.4907 237.884 57.4907H243.484V52.3998V47.3089H248.49C255.702 47.3089 258.078 49.4301 258.587 56.3029L258.926 61.3089L249.508 63.5999C238.223 66.3999 233.302 68.6059 229.993 72.3393C225.241 77.7696 225.75 86.5939 231.18 91.3454C236.526 96.0121 243.993 95.8424 253.241 91.006C258.841 87.9515 259.605 88.1212 259.605 92.3636C259.605 93.8909 260.284 93.9757 268.938 93.9757H278.272V91.8545C278.272 90.2424 277.678 89.6485 275.981 89.2242C274.623 88.9697 273.096 88.6303 272.587 88.3757C271.738 88.206 271.484 83.8787 271.484 70.8969C271.484 55.9635 271.229 53.2483 269.872 50.2786C268.09 46.3755 266.138 44.424 262.744 43.1513C259.265 41.7937 249.677 41.3695 244.502 42.3028ZM258.587 75.4787L258.332 84.2181L253.835 85.8303C247.556 88.0363 243.653 87.103 241.532 82.8605C239.75 79.1272 240.344 75.309 243.229 72.4241C245.35 70.2181 253.411 66.9938 256.89 66.909C258.756 66.8241 258.841 66.909 258.587 75.4787Z" fill="#111827"/>
<path d="M402.745 42.2179C396.636 43.3209 390.272 47.224 387.048 51.9755C377.375 66.1453 381.957 85.915 396.466 92.3636C403.084 95.3333 414.369 95.2484 420.818 92.1939C426.502 89.4787 430.236 85.8302 432.866 80.5696C434.478 77.1756 434.818 75.3089 434.818 68.0968C434.818 58.5937 433.206 53.927 428.115 48.9209C422.515 43.3209 412.078 40.5209 402.745 42.2179ZM414.115 48.7513C419.29 51.8058 421.921 61.818 420.648 73.6968C419.63 83.6241 415.472 89.0545 408.854 89.2242C404.611 89.309 401.387 86.9332 398.757 81.6726C396.975 78.0241 396.721 76.3271 396.636 68.521C396.636 58.1695 398.163 52.9088 402.236 49.43C405.375 46.8846 410.381 46.5452 414.115 48.7513Z" fill="#111827"/>
<path d="M473.594 42.3026C472.491 42.7269 469.436 45.0178 466.806 47.3936L461.969 51.636L461.715 46.9693L461.46 42.2178H458.406C456.709 42.2178 452.127 43.236 448.224 44.5087C442.115 46.5451 441.181 47.0542 441.181 48.7512C441.181 50.533 441.606 50.7027 445 50.7027H448.818V68.4361C448.818 78.1937 448.563 86.7634 448.309 87.5271C447.969 88.3756 446.781 88.8847 444.915 88.8847C442.284 88.8847 442.03 89.1392 442.03 91.4301V93.9756H456.539H470.963L470.709 91.5998C470.454 89.4786 470.115 89.3089 466.212 88.8847L461.969 88.4604L461.715 72.6785L461.545 56.9815L464.515 55.5391C468.418 53.6724 470.709 53.7572 474.103 55.7936C475.63 56.7269 477.836 57.4906 478.939 57.4906C481.23 57.4906 481.485 56.8966 482.333 48.4118C482.927 42.5572 483.436 43.236 476.818 41.7936C476.139 41.6239 474.612 41.8784 473.594 42.3026Z" fill="#111827"/>
<path d="M261.302 104.582C259.774 106.448 261.217 108.824 263.932 108.824C265.629 108.824 265.968 108.4 265.968 106.279C265.968 104.327 265.544 103.648 264.187 103.479C263.253 103.309 261.896 103.818 261.302 104.582Z" fill="#111827"/>
<path d="M323.326 105.515C321.29 107.212 320.696 108.4 320.696 110.691C320.696 114 322.648 116.206 329.605 120.533C334.272 123.503 335.205 125.539 332.914 128C330.199 131.055 325.363 129.527 322.563 124.691L320.696 121.552V126.133C320.696 129.952 320.866 130.546 321.884 129.697C322.817 128.933 323.581 128.933 324.854 129.527C325.787 130.036 328.078 130.461 330.029 130.461C334.696 130.461 338.514 126.897 338.514 122.57C338.514 119.176 336.223 116.8 329.266 112.982C324.599 110.521 323.666 109.079 324.938 106.618C325.532 105.515 326.72 105.006 328.587 105.006C331.896 105.006 333.763 106.194 335.545 109.673L336.817 112.218V107.552C336.817 104.582 336.563 103.309 336.054 104.073C335.46 105.006 334.781 105.006 332.575 104.242C328.332 102.8 326.126 103.139 323.326 105.515Z" fill="#111827"/>
<path d="M475.206 105.176C468.927 108.4 465.872 114.594 467.569 120.618C469.351 126.982 474.272 130.461 481.569 130.461C485.897 130.461 491.242 127.83 491.242 125.624C491.242 124.691 490.563 124.946 488.612 126.558C484.794 129.782 479.448 129.697 476.563 126.303C472.491 121.382 472.915 111.2 477.412 107.042C480.891 103.818 484.879 104.242 488.782 108.4L492.006 111.794L491.921 108.145C491.921 104.582 491.751 104.497 489.206 104.412C487.763 104.327 484.879 104.073 482.757 103.733C479.703 103.309 478.175 103.564 475.206 105.176Z" fill="#111827"/>
<path d="M118.586 104.751C120.198 105.345 120.029 128.424 118.416 129.358C117.653 129.782 119.435 130.036 122.574 130.036C127.41 130.036 127.835 129.867 126.732 128.679C124.95 126.642 125.035 107.382 126.901 105.515C128.089 104.242 127.75 104.157 122.829 104.242C119.859 104.242 117.992 104.497 118.586 104.751Z" fill="#111827"/>
<path d="M169.495 104.751C170.089 105.006 170.513 106.788 170.513 109.418C170.513 113.067 170.344 113.576 169.326 112.727C168.647 112.133 166.865 111.794 165.253 111.964C158.719 112.557 156.344 123.758 161.604 129.018C163.386 130.885 167.459 130.885 168.901 129.103C169.92 127.83 169.835 127.745 168.307 128.255C165.847 129.018 164.574 127.236 164.065 122.315C163.471 117.309 164.744 113.491 167.035 113.491C169.835 113.491 170.598 115.527 170.429 122.739C170.259 126.473 170.344 129.782 170.598 129.951C170.853 130.206 172.465 130.206 174.162 129.867C176.792 129.442 177.132 129.188 176.453 127.83C175.944 126.982 175.604 121.382 175.604 115.273V104.157L172.041 104.242C170.004 104.242 168.901 104.497 169.495 104.751Z" fill="#111827"/>
<path d="M295.072 104.921C296.005 105.43 296.175 108.4 295.92 117.818L295.666 130.121L298.89 130.036C301.181 130.036 301.944 129.697 301.605 128.933C301.35 128.255 301.181 122.485 301.181 115.952V104.158H297.617C295.326 104.158 294.393 104.412 295.072 104.921Z" fill="#111827"/>
<path d="M363.545 115.188C360.829 121.297 357.945 127.236 357.011 128.339L355.399 130.376L358.369 130.291C361.508 130.206 362.017 129.697 360.575 128.255C359.981 127.661 359.896 126.642 360.49 125.115C361.339 122.994 361.763 122.824 366.43 122.824C371.266 122.824 371.436 122.909 372.369 125.454C372.963 127.151 372.963 128.509 372.539 129.103C371.945 129.782 373.133 130.036 376.527 130.036H381.363L377.799 122.909C375.848 119.006 373.217 113.236 371.86 110.012C370.587 106.788 369.23 104.157 368.975 104.157C368.72 104.157 366.26 109.164 363.545 115.188ZM368.211 116.036C369.145 117.818 369.908 119.77 369.908 120.279C369.908 120.703 368.211 121.127 366.175 121.127H362.442L364.223 116.885C365.157 114.509 366.09 112.642 366.26 112.642C366.345 112.642 367.278 114.17 368.211 116.036Z" fill="#111827"/>
<path d="M421.412 104.836C422.006 105.176 422.6 106.873 422.769 108.57C423.109 111.964 422.26 114.339 421.327 112.727C420.648 111.709 417.509 111.455 415.303 112.303C411.4 113.83 410.042 124.182 413.266 128.255C414.539 129.867 415.812 130.461 417.848 130.461C419.46 130.461 420.987 130.036 421.242 129.612C421.666 128.933 422.175 128.933 422.854 129.527C424.297 130.715 430.575 129.697 429.387 128.509C428.794 127.915 428.454 122.994 428.454 115.867V104.158H424.466C422.175 104.158 420.818 104.497 421.412 104.836ZM421.666 114.764C423.193 116.545 422.854 126.218 421.242 127.83C420.139 128.933 419.8 128.849 418.272 127.491C416.915 126.303 416.575 124.946 416.575 120.703C416.575 114.17 418.866 111.455 421.666 114.764Z" fill="#111827"/>
<path d="M510.079 105.176C510.757 105.77 513.388 111.03 515.848 116.885C522.042 131.648 521.788 131.139 522.891 129.103C523.4 128.254 525.861 122.909 528.321 117.309C530.782 111.709 533.667 106.448 534.6 105.6C536.382 104.157 536.297 104.157 532.733 104.242C530.697 104.242 529.509 104.497 530.103 104.751C530.612 104.921 531.121 105.77 531.121 106.533C531.121 108.739 525.012 122.145 524.333 121.382C523.994 121.042 522.297 117.309 520.515 113.151C517.97 107.127 517.545 105.515 518.479 104.921C519.242 104.497 517.63 104.157 514.236 104.157C509.739 104.157 508.976 104.327 510.079 105.176Z" fill="#111827"/>
<path d="M227.786 109.758C225.496 112.218 224.732 113.576 225.411 113.83C226.174 114.17 226.514 116.376 226.514 121.552C226.514 128.424 226.599 128.849 228.635 129.782C230.247 130.461 231.265 130.461 232.877 129.782C235.423 128.594 235.762 127.067 233.302 127.661C231.69 128.085 231.605 127.661 231.605 120.788C231.605 113.491 231.605 113.491 233.811 113.491C234.999 113.491 235.762 113.152 235.423 112.642C235.168 112.133 234.15 111.794 233.302 111.794C232.114 111.794 231.605 111.115 231.435 108.909L231.18 106.024L227.786 109.758Z" fill="#111827"/>
<path d="M135.726 113.406C136.829 115.527 136.829 126.642 135.81 128.679C135.047 130.036 135.386 130.206 138.526 130.206H142.089V122.485C142.089 115.018 142.174 114.764 144.041 114.509C145.992 114.17 145.992 114.254 145.738 122.145L145.483 130.036L148.877 130.121L152.271 130.206L152.017 123.333C151.847 119.515 151.253 115.527 150.659 114.339C149.471 111.709 145.568 111.03 143.362 113.067C142.004 114.254 141.835 114.254 141.41 113.067C141.071 112.303 139.798 111.794 137.847 111.794C135.132 111.794 134.877 111.964 135.726 113.406Z" fill="#111827"/>
<path d="M182.986 112.812C183.495 113.406 184.089 117.055 184.344 120.958C184.598 124.776 185.277 128.509 185.786 129.188C186.974 130.63 190.623 130.885 192.574 129.612C193.253 129.188 194.186 129.188 194.695 129.527C195.12 129.952 196.732 130.121 198.089 129.867L200.635 129.527L200.211 120.873L199.786 112.218L196.817 111.964L193.847 111.709V119.6C193.847 126.982 193.762 127.491 192.065 127.746C189.774 128.085 189.18 126.133 189.18 117.903V111.794H185.701C182.986 111.794 182.392 112.048 182.986 112.812Z" fill="#111827"/>
<path d="M208.356 113.66C206.15 116.8 206.744 118.667 211.411 122.909C215.059 126.388 215.568 127.151 214.635 128.339C213.108 130.206 212.259 129.951 209.29 126.812C206.829 124.267 206.744 124.182 207.253 126.218C207.593 127.406 207.847 128.679 207.847 129.188C207.847 129.612 209.629 130.121 211.75 130.291C216.587 130.63 218.877 128.848 218.877 124.861C218.877 122.145 218.793 121.976 211.835 116.376C210.562 115.357 210.477 114.848 211.241 113.83C212.683 112.133 213.532 112.303 215.908 114.764L218.029 116.8V114.509C218.029 112.388 217.774 112.218 213.871 111.964C210.308 111.794 209.459 112.048 208.356 113.66Z" fill="#111827"/>
<path d="M240.768 112.812C242.041 114.085 242.126 128.085 240.938 129.273C240.344 129.867 241.193 130.121 243.653 129.952L247.132 129.782L246.962 124.352C246.793 120.024 247.132 118.497 248.405 116.885C249.847 115.103 250.271 114.933 251.459 115.952C252.732 116.97 253.071 116.97 254.259 115.782C255.023 115.103 255.362 113.83 255.108 113.151C254.259 111.115 251.29 111.539 248.999 114L246.878 116.291V114C246.878 111.964 246.623 111.794 243.314 111.794C240.514 111.794 240.005 112.048 240.768 112.812Z" fill="#111827"/>
<path d="M260.453 113.406C261.556 115.612 261.556 126.727 260.368 128.934C259.435 130.63 259.605 130.715 262.15 130.121C263.678 129.867 265.375 129.612 265.884 129.612C266.562 129.612 266.732 126.897 266.562 120.703L266.308 111.794H262.914C259.859 111.794 259.605 111.964 260.453 113.406Z" fill="#111827"/>
<path d="M275.302 113.915C272.756 116.376 272.672 117.394 274.708 118.497C276.999 119.685 278.611 118.327 277.932 115.782C277.338 113.236 278.356 112.303 280.817 113.067C282.005 113.406 282.514 114.339 282.514 115.951C282.514 117.818 281.665 118.836 278.102 121.127C274.368 123.588 273.605 124.521 273.605 126.557C273.605 130.121 275.726 131.139 279.375 129.442C282.005 128.17 282.429 128.17 283.617 129.358C284.466 130.206 285.653 130.461 287.096 130.121C289.217 129.612 290.235 127.915 288.453 127.915C287.944 127.915 287.605 125.115 287.605 121.297C287.605 113.321 286.502 111.794 280.902 111.794C278.272 111.794 276.829 112.303 275.302 113.915ZM282.344 123.418C282.175 125.964 281.75 126.642 280.393 126.642C278.187 126.642 277.762 124.012 279.629 121.891C281.835 119.43 282.684 119.939 282.344 123.418Z" fill="#111827"/>
<path d="M438.975 113.067C432.612 117.479 435.242 130.461 442.454 130.461C445.254 130.461 449.666 127.746 449.666 126.049C449.666 125.539 448.987 125.709 448.139 126.473C447.29 127.321 445.933 127.915 445.169 127.915C443.472 127.915 440.333 124.012 440.333 121.891C440.333 120.533 441.012 120.279 445 120.279C449.327 120.279 449.666 120.109 449.666 118.242C449.666 117.139 448.903 115.273 447.884 114C445.848 111.455 441.86 111.03 438.975 113.067ZM444.915 114C445.169 114.764 445.424 116.291 445.424 117.394C445.424 119.091 445 119.43 442.878 119.43C440.672 119.43 440.333 119.091 440.333 117.055C440.333 113.321 443.727 110.945 444.915 114Z" fill="#111827"/>
<path d="M344.793 125.709C343.86 128.085 344.878 130.036 346.914 130.036C349.29 130.036 350.902 127.915 350.139 125.879C349.46 124.182 345.387 124.097 344.793 125.709Z" fill="#111827"/>
<path d="M387.811 125.709C386.454 127.406 388.066 130.461 390.272 130.461C392.478 130.461 394.09 127.406 392.733 125.709C392.224 125.03 391.12 124.521 390.272 124.521C389.424 124.521 388.32 125.03 387.811 125.709Z" fill="#111827"/>
<path d="M498.285 125.879C497.521 127.915 499.133 130.036 501.509 130.036C503.206 130.036 503.545 129.612 503.545 127.491C503.545 125.37 503.206 124.945 501.169 124.691C499.642 124.521 498.709 124.861 498.285 125.879Z" fill="#111827"/>
<path d="M537.315 125.879C536.551 127.915 538.164 130.036 540.539 130.036C542.236 130.036 542.576 129.612 542.576 127.491C542.576 125.37 542.236 124.945 540.2 124.691C538.673 124.521 537.739 124.861 537.315 125.879Z" fill="#111827"/>
</svg>
