<svg viewBox="0 0 446 170" fill="none" xmlns="http://www.w3.org/2000/svg">
<path d="M195.209 169.066H141.725L141.201 168.168L97.6046 92.6607L53.484 169.066H0L97.6046 0L195.209 169.066ZM143.748 165.471H188.917L97.5297 7.26604L6.21733 165.471H51.3866L97.6046 85.4696L143.748 165.471Z" fill="currentColor"/>
<path d="M219.554 169.066H166.07L165.546 168.168L121.875 92.6607L77.7541 169.066H24.27L121.875 0L219.554 169.066ZM168.168 165.471H213.262L121.875 7.26604L30.4874 165.471H75.6567L121.875 85.4696L168.168 165.471Z" fill="currentColor"/>
<path d="M200.378 75.3571L198.131 80.3759H196.932H196.633H192.138H190.64L205.621 47.042L206.37 45.394L207.12 47.042L222.101 80.3759H220.603H216.108H215.809H214.61L212.363 75.3571L212.288 75.1324H200.453L200.378 75.3571ZM209.142 68.0911L206.37 61.9486L203.599 68.0911H209.142Z" fill="currentColor"/>
<path d="M239.18 45.3191H247.944V52.2855H239.18V80.3009H232.139V52.2855H223.375V45.3191H232.139H239.18Z" fill="currentColor"/>
<path d="M258.506 45.3191V73.3345H272.514V80.3759H251.54V45.394L258.506 45.3191Z" fill="currentColor"/>
<path d="M284.799 75.3571L282.551 80.3759H281.353H281.053H276.559H275.061L290.042 47.042L290.791 45.394L291.54 47.042L306.522 80.3759H305.024H300.529H300.304H299.106L296.859 75.3571L296.784 75.1324H284.948L284.799 75.3571ZM293.638 68.0911L290.866 61.9486L288.094 68.0911H293.638Z" fill="currentColor"/>
<path d="M328.994 64.4955V45.394H336.035V80.3759L315.061 61.1995V80.3759H308.02V45.394L328.994 64.4955Z" fill="currentColor"/>
<path d="M355.587 45.3191H364.351V52.2855H355.587V80.3009H348.545V52.2855H339.781V45.3191H348.545H355.587Z" fill="currentColor"/>
<path d="M367.797 45.3191H374.838V80.3009H367.797V45.3191Z" fill="currentColor"/>
<path d="M402.778 46.7423C404.875 47.6412 406.748 48.9147 408.396 50.4877L403.452 55.4316C401.355 53.3342 398.883 52.3604 396.036 52.3604C393.115 52.3604 390.643 53.4091 388.621 55.4316C386.598 57.4541 385.549 59.9261 385.549 62.8475C385.549 65.7689 386.598 68.2408 388.621 70.2633C390.643 72.2858 393.115 73.3345 396.036 73.3345C398.958 73.3345 401.43 72.2858 403.452 70.2633L408.396 75.2072C406.748 76.7803 404.95 78.0537 402.778 78.9526C400.681 79.8515 398.359 80.3009 395.962 80.3009C391.167 80.3009 387.048 78.5781 383.602 75.2072C380.156 71.7615 378.433 67.6416 378.433 62.8475C378.433 58.0534 380.156 53.9335 383.602 50.4877C387.048 47.042 391.167 45.3191 396.036 45.3191C398.508 45.3191 400.756 45.8434 402.778 46.7423Z" fill="currentColor"/>
<path d="M440.831 50.4877C444.277 53.9335 446 58.0534 446 62.8475C446 67.6416 444.277 71.7615 440.831 75.2072C437.386 78.653 433.266 80.3009 428.472 80.3009C423.677 80.3009 419.558 78.5781 416.112 75.2072C412.666 71.7615 411.018 67.6416 411.018 62.8475C411.018 58.0534 412.741 53.9335 416.112 50.4877C419.558 47.042 423.677 45.3191 428.472 45.3191C433.266 45.3191 437.386 47.042 440.831 50.4877ZM420.981 55.4316C418.958 57.4541 417.91 59.9261 417.91 62.8475C417.91 65.7689 418.958 68.2408 420.981 70.2633C423.003 72.2858 425.475 73.3345 428.397 73.3345C431.243 73.3345 433.715 72.2858 435.812 70.2633C437.91 68.2408 438.884 65.7689 438.884 62.8475C438.884 59.9261 437.835 57.529 435.812 55.4316C433.79 53.3342 431.243 52.3604 428.397 52.3604C425.475 52.3604 423.003 53.4091 420.981 55.4316Z" fill="currentColor"/>
<path d="M279.555 88.7654H288.319V95.7318H279.555V123.747H272.514V95.7318H263.75V88.7654H272.514H279.555Z" fill="currentColor"/>
<path d="M312.739 88.7654V95.7318H298.657V102.773H309.144V109.74H298.657V116.706H312.665V123.747H298.657H291.615V109.74V102.773V88.7654H312.739Z" fill="currentColor"/>
<path d="M340.231 90.1139C342.328 91.0128 344.201 92.2862 345.849 93.8593L340.905 98.8032C338.807 96.7806 336.335 95.7319 333.489 95.7319C330.567 95.7319 328.095 96.7806 326.073 98.8032C324.05 100.826 323.002 103.298 323.002 106.219C323.002 109.14 324.05 111.612 326.073 113.635C328.095 115.657 330.567 116.706 333.489 116.706C336.41 116.706 338.882 115.657 340.905 113.635L345.849 118.579C344.276 120.152 342.403 121.425 340.231 122.324C338.133 123.223 335.886 123.672 333.489 123.672C328.695 123.672 324.575 121.95 321.129 118.504C317.683 115.058 315.96 110.938 315.96 106.144C315.96 101.35 317.683 97.2301 321.129 93.7843C324.575 90.3386 328.695 88.6157 333.489 88.6157C335.736 88.7655 338.058 89.215 340.231 90.1139Z" fill="currentColor"/>
<path d="M355.212 88.7654V102.773H365.699V88.7654H372.74V123.747H365.699V109.74H355.212V123.747H348.246V88.7654H355.212Z" fill="currentColor"/>
</svg>
