<svg width="203" height="179" viewBox="0 0 203 179" fill="none" xmlns="http://www.w3.org/2000/svg">
<path d="M172.368 5.4056C172.639 8.37863 173.382 18.9869 174.125 29.0547C177.098 70.7447 179.193 96.9614 179.531 96.9614C179.733 96.9614 183.99 95.3398 188.99 93.3803L198.112 89.7991L197.909 86.8261C197.842 85.1369 197.031 73.9204 196.085 61.8256C195.207 49.7308 194.261 36.1494 193.99 31.6223L193.517 23.3789L184.801 13.7166C180.004 8.37863 175.139 3.10826 173.99 2.02716L171.963 8.89376e-05L172.368 5.4056Z" fill="#111827"/>
<path d="M106.962 5.54085C106.759 7.70306 106.083 14.9329 105.543 21.6222C105.002 28.3116 103.651 44.5957 102.502 57.7716C101.421 70.9475 100.34 83.718 100.137 86.1505C99.1235 99.0562 97.0965 122.705 96.7586 125.138C96.5559 127.165 96.6911 128.043 97.2992 128.043C98.0424 128.043 118.719 120.205 119.124 119.732C119.327 119.53 120.002 111.962 122.097 85.137C122.57 79.9342 123.043 75.5422 123.178 75.4071C123.381 75.2044 124.056 75.6773 124.732 76.4206C125.881 77.5693 152.503 107.164 152.841 107.637C152.976 107.84 170.814 100.543 171.287 100.07C171.422 99.867 166.287 91.556 159.8 81.6234C146.489 61.2176 120.137 20.8114 112.705 9.25714C110.002 5.13544 107.705 1.68943 107.57 1.68943C107.435 1.68943 107.164 3.44622 106.962 5.54085Z" fill="#111827"/>
<path d="M139.935 4.72992C140.138 5.81102 141.422 15.8788 142.773 26.9601L145.206 47.2307L156.017 63.3797C161.963 72.2312 166.895 79.3935 167.03 79.2584C167.098 79.1232 167.03 68.9879 166.828 56.6904L166.49 34.3251L154.733 20.2032C148.246 12.4328 142.165 5.33804 141.219 4.39208L139.53 2.70285L139.935 4.72992Z" fill="#111827"/>
<path d="M5.54065 18.041C4.86496 22.9735 3.37844 33.9873 2.1622 42.5685L0 58.1093L22.3653 102.502C34.6628 126.962 45.0009 146.962 45.2711 146.962C45.5414 146.962 54.9335 143.584 66.0148 139.395C78.7853 134.665 86.0827 131.624 85.8125 131.151C85.5422 130.746 74.596 113.651 61.3525 93.2452C48.1766 72.7718 30.7438 45.7442 22.568 33.1089C14.3922 20.4735 7.50014 9.86517 7.22987 9.59489C6.95959 9.32462 6.21634 13.1085 5.54065 18.041Z" fill="#111827"/>
<path d="M66.4203 10.4731C65.2716 14.0542 55.8119 60.2713 56.0822 61.2173C56.3525 62.0957 81.1503 106.151 81.8935 106.961C81.9611 107.029 83.38 100.34 84.9341 92.0963C86.5558 83.7853 88.6504 72.7716 89.7315 67.6363L91.6234 58.1767L79.7989 34.8654C66.2175 7.90544 66.8932 9.12168 66.4203 10.4731Z" fill="#111827"/>
<path d="M200.747 95.7452C200.477 96.1506 200.342 100.272 200.409 104.799C200.477 109.664 200.274 113.246 199.869 113.448C199.531 113.651 197.436 110.678 195.274 106.759C192.098 101.016 191.085 99.6642 190.004 99.7993C188.72 100.002 188.652 100.61 188.449 113.043C188.314 125.948 188.314 126.084 189.666 125.34C190.882 124.665 191.017 123.921 191.017 115.678C191.085 105.408 190.95 105.408 196.22 115.07C197.909 118.178 199.733 120.881 200.274 121.084C202.504 121.962 202.842 119.867 202.639 107.232C202.436 95.9479 202.098 93.583 200.747 95.7452Z" fill="#111827"/>
<path d="M174.801 105.543C169.733 107.435 166.625 113.178 166.625 120.746C166.557 128.651 168.652 132.097 173.449 132.097C178.72 132.097 183.382 125.948 184.058 118.043C184.801 108.651 180.882 103.313 174.801 105.543ZM178.787 109.597C180.814 111.286 181.693 115.61 180.882 119.935C180.071 124.124 179.395 125.475 177.098 127.3C174.598 129.259 173.179 129.057 171.084 126.557C169.395 124.529 169.26 124.056 169.53 119.597C169.868 114.191 171.287 110.948 173.99 109.529C176.355 108.178 177.03 108.178 178.787 109.597Z" fill="#111827"/>
<path d="M153.381 114.259C149.665 116.083 147.841 120.408 149.124 124.327C149.868 126.624 151.422 127.57 155.814 128.313C157.098 128.516 158.516 129.057 159.057 129.462C161.287 131.354 158.922 135.543 155.206 136.422C153.314 136.895 152.368 136.422 151.422 134.597C150.814 133.584 150.611 133.584 149.462 134.395C148.314 135.205 148.246 135.543 148.989 137.097C150.746 141.016 156.354 140.949 160.273 136.827C161.76 135.273 162.233 134.057 162.503 131.151C162.908 126.489 161.49 124.935 156.557 124.259C153.989 123.921 152.841 123.381 152.097 122.232C149.8 118.719 155.408 114.732 158.584 117.57C159.8 118.719 161.962 118.313 161.962 116.962C161.962 115.543 158.922 113.178 157.165 113.178C156.287 113.178 154.597 113.718 153.381 114.259Z" fill="#111827"/>
<path d="M142.233 119.124C141.219 119.327 141.016 120.475 140.881 128.922L140.678 138.516L136.422 130.881C134.057 126.759 131.962 123.313 131.759 123.313C131.624 123.313 130.881 123.651 130.138 123.989C128.921 124.665 128.854 125.543 128.854 137.233C128.854 148.787 128.921 149.733 130.07 149.53C131.084 149.327 131.219 148.246 131.421 140.003C131.489 134.935 131.827 130.746 132.165 130.746C132.435 130.746 134.395 133.922 136.557 137.841C139.462 143.179 140.746 144.935 141.76 144.935C142.503 144.935 143.246 144.53 143.449 144.057C143.584 143.584 143.651 137.705 143.584 131.084C143.381 120.002 143.246 118.921 142.233 119.124Z" fill="#111827"/>
<path d="M121.962 126.759C120.881 127.367 120.746 128.719 120.746 139.868C120.746 151.895 120.813 152.368 122.097 152.368C123.381 152.368 123.448 151.895 123.448 139.192C123.448 131.962 123.381 126.016 123.313 126.016C123.178 126.016 122.57 126.354 121.962 126.759Z" fill="#111827"/>
<path d="M113.786 129.8C112.502 130.476 110.948 132.773 108.583 137.503C106.691 141.219 104.867 144.26 104.529 144.26C104.124 144.26 103.853 141.962 103.853 138.854C103.853 133.584 103.786 133.449 102.502 134.124C101.218 134.8 101.151 135.543 101.151 147.706C101.151 160.341 101.151 160.544 102.502 159.801C103.583 159.192 103.853 158.382 103.853 155.341C103.853 152.503 104.326 150.679 105.678 148.246C107.705 144.395 107.772 144.395 111.962 150.611C114.597 154.53 115.07 154.868 116.286 154.26C117.097 153.855 117.84 153.449 117.975 153.314C118.11 153.179 116.354 150.476 114.056 147.3C111.826 144.125 109.934 141.287 109.934 140.949C109.934 140.611 111.286 137.841 113.043 134.8C114.732 131.759 116.016 129.124 115.881 129.057C115.745 128.922 114.867 129.259 113.786 129.8Z" fill="#111827"/>
<path d="M86.1503 140.746C85.0692 140.949 84.9341 142.165 84.9341 153.99V167.031L91.218 164.53C96.0829 162.571 97.5019 161.693 97.637 160.611C97.9073 158.72 97.2992 158.787 92.2991 160.814C89.3936 161.963 88.1774 162.233 87.9747 161.625C87.772 161.152 87.5693 156.219 87.5017 150.679C87.299 141.422 87.1639 140.544 86.1503 140.746Z" fill="#111827"/>
<path d="M76.9609 144.395C76.0825 145.273 75.8798 153.854 76.5555 163.719C76.9609 169.463 77.0961 169.801 78.2447 169.192C79.3934 168.584 79.5285 167.503 79.5285 156.084C79.5285 143.314 79.2583 142.097 76.9609 144.395Z" fill="#111827"/>
<path d="M72.2987 146.152C71.8933 146.422 70.6771 151.084 69.6635 156.422C68.7176 161.828 67.6365 166.49 67.3662 166.76C67.0959 167.03 66.2175 163.584 65.3391 158.99C64.5283 154.395 63.7175 150.476 63.5148 150.206C63.3796 149.935 62.5012 150.071 61.6228 150.476C59.866 151.287 59.6633 151.962 57.5687 163.855C56.1497 171.693 55.4741 173.179 54.8659 169.936C51.9605 153.787 51.9605 153.719 50.001 154.935C49.3253 155.341 49.3929 156.963 50.4064 162.233C53.5146 178.179 54.0551 179.666 56.42 178.179C57.0281 177.774 61.285 158.99 61.285 156.557C61.285 156.422 61.5553 156.49 61.8931 156.692C62.2309 156.895 63.2445 160.882 64.1229 165.544C65.677 173.99 66.2175 175.003 68.4473 173.449C68.9878 173.112 74.1231 148.381 74.1231 146.084C74.1231 145.476 73.3122 145.476 72.2987 146.152Z" fill="#111827"/>
</svg>
