<svg xmlns="http://www.w3.org/2000/svg" viewBox="0 0 512 512" fill="none">
<g clip-path="url(#clip0_1_539)">
<path fill-rule="evenodd" clip-rule="evenodd" d="M512.98 256.152C512.98 397.538 398.366 512.154 256.986 512.154C115.6 512.154 0.983002 397.538 0.983002 256.152C0.983002 114.769 115.6 0.148987 256.986 0.148987C398.366 0.148987 512.98 114.769 512.98 256.152Z" fill="url(#paint0_linear_1_539)"/>
<mask id="mask0_1_539" style="mask-type:luminance" maskUnits="userSpaceOnUse" x="0" y="0" width="513" height="513">
<path d="M512.983 256.152C512.983 397.538 398.375 512.154 256.986 512.154C115.603 512.154 0.985992 397.538 0.985992 256.152C0.985992 114.769 115.603 0.148987 256.986 0.148987C398.375 0.148987 512.983 114.769 512.983 256.152Z" fill="white"/>
</mask>
<g mask="url(#mask0_1_539)">
<path d="M215.052 262.57H152.993V149.939L215.052 75.662V262.57Z" fill="#3B82F6"/>
<path d="M215.052 75.662V262.57H360.902V149.361L215.052 75.662Z" fill="url(#paint1_linear_1_539)"/>
<path d="M207.878 319.52H135.192V206.888L207.878 132.61V319.52Z" fill="#3B82F6"/>
<path d="M207.878 132.61V319.52H378.703V206.31L207.878 132.61Z" fill="url(#paint2_linear_1_539)"/>
<path d="M194.51 426.662H102.021V293.679L194.51 205.979V426.662Z" fill="#3B82F6"/>
<path d="M194.51 205.979V426.662H411.874V292.995L194.51 205.979Z" fill="url(#paint3_linear_1_539)"/>
<path d="M180.173 263.354V511.924H447.572V347.5L180.173 263.354Z" fill="url(#paint4_linear_1_539)"/>
<path d="M194.51 205.979V426.662H411.874V292.995L194.51 205.979Z" fill="url(#paint5_linear_1_539)"/>
<path d="M180.173 263.354V511.924H447.572V347.5L180.173 263.354Z" fill="url(#paint6_linear_1_539)"/>
<path d="M180.173 511.924H66.406V348.328L180.173 263.354V511.924Z" fill="#3B82F6"/>
<path d="M237.719 281.462L205.507 271.325V511.924H237.719V281.462Z" fill="#3B82F6"/>
<path d="M281.647 296.03L249.436 285.463V511.924H281.647V296.03Z" fill="#3B82F6"/>
<path d="M325.575 309.21L293.363 298.973V511.924H325.575V309.21Z" fill="#3B82F6"/>
<path d="M371.7 325.63L339.485 313.486V511.924H371.7V325.63Z" fill="#3B82F6"/>
<path d="M418.555 338.495L386.343 328.231V511.924H418.555V338.495Z" fill="#3B82F6"/>
</g>
</g>
<defs>
<linearGradient id="paint0_linear_1_539" x1="0.983402" y1="256.151" x2="512.98" y2="256.151" gradientUnits="userSpaceOnUse">
<stop stop-color="#3B82F6"/>
<stop offset="1" stop-color="white"/>
</linearGradient>
<linearGradient id="paint1_linear_1_539" x1="287.977" y1="75.6616" x2="287.977" y2="262.57" gradientUnits="userSpaceOnUse">
<stop stop-color="white"/>
<stop offset="0.5654" stop-color="white" stop-opacity="0.4817"/>
<stop offset="1" stop-color="white" stop-opacity="0"/>
</linearGradient>
<linearGradient id="paint2_linear_1_539" x1="293.291" y1="132.61" x2="293.291" y2="319.519" gradientUnits="userSpaceOnUse">
<stop stop-color="white"/>
<stop offset="0.5654" stop-color="white" stop-opacity="0.4817"/>
<stop offset="1" stop-color="white" stop-opacity="0"/>
</linearGradient>
<linearGradient id="paint3_linear_1_539" x1="303.192" y1="205.98" x2="303.192" y2="426.662" gradientUnits="userSpaceOnUse">
<stop stop-color="white"/>
<stop offset="0.5654" stop-color="white" stop-opacity="0.4817"/>
<stop offset="1" stop-color="white" stop-opacity="0"/>
</linearGradient>
<linearGradient id="paint4_linear_1_539" x1="313.873" y1="263.354" x2="313.873" y2="511.924" gradientUnits="userSpaceOnUse">
<stop stop-color="white"/>
<stop offset="0.5654" stop-color="white" stop-opacity="0.4817"/>
<stop offset="1" stop-color="white" stop-opacity="0"/>
</linearGradient>
<linearGradient id="paint5_linear_1_539" x1="303.192" y1="205.98" x2="303.192" y2="426.662" gradientUnits="userSpaceOnUse">
<stop stop-color="white"/>
<stop offset="0.5654" stop-color="white" stop-opacity="0.4817"/>
<stop offset="1" stop-color="white" stop-opacity="0"/>
</linearGradient>
<linearGradient id="paint6_linear_1_539" x1="313.873" y1="263.354" x2="313.873" y2="511.924" gradientUnits="userSpaceOnUse">
<stop stop-color="white"/>
<stop offset="0.5654" stop-color="white" stop-opacity="0.4817"/>
<stop offset="1" stop-color="white" stop-opacity="0"/>
</linearGradient>
<clipPath id="clip0_1_539">
<rect width="512" height="512" fill="white"/>
</clipPath>
</defs>
</svg>