<svg xmlns="http://www.w3.org/2000/svg" viewBox="0 0 511 512" fill="none">
<path fill-rule="evenodd" clip-rule="evenodd" d="M512.142 256.001C512.142 397.394 397.526 512.007 256.145 512.007C114.758 512.007 0.141968 397.393 0.141968 256.001C0.141968 114.614 114.758 -0.00799561 256.145 -0.00799561C397.525 -0.00699561 512.142 114.614 512.142 256.001Z" fill="url(#paint0_linear_1_30)"/>
<path fill-rule="evenodd" clip-rule="evenodd" d="M183.012 436.495C184.289 438.479 185.646 440.177 187.684 441.297C190.559 442.872 191.097 444.836 189.591 447.765C189.173 448.575 188.657 449.331 188.205 450.124C186.235 453.609 186.899 456.73 190.387 458.666C193.914 460.624 195.341 463.682 195.85 467.419C196.726 473.793 197.591 480.169 198.49 486.53C198.942 489.774 197.986 490.897 194.837 490.305C192.014 489.778 189.185 489.129 186.487 488.174C182.817 486.877 179.896 484.428 177.709 481.19C172.446 473.379 167.201 465.554 161.978 457.712C160.191 455.026 159.407 452.025 159.373 448.804C159.333 445.303 159.207 441.809 159.126 438.316C159.069 435.782 158.187 433.528 156.469 431.699C151.905 426.829 150.044 420.962 150.239 414.445C150.416 408.641 149.534 403.035 147.868 397.526C146.43 392.756 146.774 387.897 146.94 383.049C147.174 376.521 147.524 369.998 147.793 363.473C148.257 352.138 142.456 343.631 131.708 339.889C128.094 338.626 125.208 336.459 123.049 333.292C116.177 323.202 109.288 313.123 102.399 303.047C100.154 299.757 99.2899 296.17 100.017 292.221C100.412 290.076 100.693 287.911 101.145 285.79C102.514 279.382 106.202 274.632 111.705 271.196C113.291 270.205 114.854 269.175 116.412 268.135C119.184 266.3 119.905 263.726 119.172 260.582C117.311 252.668 109.912 247.411 101.821 248.058C95.7619 248.539 90.6769 246.308 86.7199 241.716C83.5189 237.994 80.3519 234.226 77.4079 230.289C74.7799 226.784 71.4069 225 67.1059 224.717C65.2389 224.599 63.3779 224.396 61.5109 224.17C59.3119 223.9 58.5619 223.128 58.4699 220.943C58.3899 219.236 58.4529 217.521 58.4529 215.471C55.5379 215.855 52.7259 215.909 50.0859 216.619C40.5229 219.204 32.3169 216.717 25.0099 210.414C24.5059 209.985 24.0649 209.495 23.5669 209.06C21.2589 207.013 20.3769 204.398 21.2189 201.504C23.4919 193.682 25.6399 185.811 28.3769 178.151C39.4229 147.265 56.2709 119.878 78.7819 96.013C90.0919 84.033 102.575 73.405 115.935 63.802C118.615 61.875 121.215 59.862 123.935 57.832C124.519 58.51 125.04 59.169 125.607 59.793C128.831 63.323 133.063 64.715 137.61 65.394C141.263 65.932 144.923 66.459 148.593 66.909C150.088 67.098 150.763 67.725 150.924 69.311C151.285 73.09 151.806 76.853 152.356 80.606C152.448 81.216 152.952 82.181 153.347 82.227C154.017 82.293 155.076 81.964 155.409 81.44C156.44 79.788 157.591 78.07 158.003 76.206C158.988 71.803 161.599 69.237 165.888 68.43C169.816 67.691 173.813 67.342 177.753 66.643C182.14 65.861 183.537 63.869 182.878 59.494C182.259 55.388 181.503 51.313 180.851 47.21C180.719 46.368 180.513 45.415 180.765 44.659C181.08 43.742 181.664 42.52 182.443 42.225C186.973 40.484 191.674 39.408 196.547 40.59C202.239 41.959 205.194 45.844 206.191 51.444C206.386 52.532 206.655 53.629 207.079 54.648C207.926 56.707 209.41 57.399 211.482 56.606C212.977 56.033 214.431 55.277 215.789 54.41C217.873 53.064 219.849 51.547 221.882 50.135C222.38 49.783 222.902 49.457 223.457 49.233C225.398 48.463 226.131 49.073 226.08 51.166C225.902 58.287 227.941 64.85 231.268 71.063C232.253 72.884 233.387 74.625 234.389 76.443C236.17 79.693 235.884 81.712 233.284 84.374C232.437 85.239 231.526 86.052 230.616 86.853C229.717 87.658 228.778 88.425 227.747 89.29C231.457 91.22 235.042 93.076 238.81 95.028C236.645 97.499 234.068 98.97 230.873 99.251C226.767 99.609 223.4 98.335 221.069 94.759C220.147 93.35 220.038 92.002 220.834 90.49C222.432 87.452 223.955 84.377 225.661 81.021C223.136 81.384 221.052 81.954 219.339 83.626C218.222 84.723 217.003 85.713 215.783 86.692C213.83 88.25 211.729 88.396 209.553 87.162C206.736 85.564 203.929 83.941 201.129 82.32C196.8 79.832 195.385 80.227 193.066 84.585C192.659 85.332 192.27 86.097 191.789 87.03C193.593 88.27 195.368 89.487 197.149 90.706C198.157 91.391 199.222 91.998 200.144 92.779C200.591 93.157 200.757 93.864 201.061 94.42C200.465 94.686 199.853 95.219 199.286 95.176C196.606 95.001 193.943 94.672 191.275 94.383C190.467 94.292 189.677 94.111 188.87 94.063C184.879 93.802 181.643 95.277 180.017 98.936C175.51 109.081 167.676 115.955 158.548 121.673C155.032 123.875 151.562 126.156 148.08 128.422C144.81 130.549 142.124 133.143 141.282 137.175C141.248 137.367 141.151 137.567 141.156 137.759C141.357 142.174 138.751 144.825 135.407 147.102C131.06 150.062 126.702 153.029 122.505 156.21C118.233 159.448 116.057 163.909 115.862 169.304C115.85 169.759 115.833 170.215 115.736 170.661C114.825 175.193 113.274 176.238 108.704 175.371C108.108 175.256 107.518 175.093 106.934 174.938C103.744 174.108 103.424 173.707 103.418 170.486C103.406 167.268 103.424 167.202 105.296 163.591C99.2319 163.092 93.2359 162.597 87.2399 162.128C84.2559 161.899 81.2729 161.718 78.2889 161.535C74.8819 161.326 71.7439 162.197 68.9609 164.146C61.7109 169.229 55.4579 175.307 50.5789 182.726C46.2899 189.237 46.4389 195.015 51.0719 201.277C52.0049 202.534 53.0419 203.734 54.1349 204.851C57.4789 208.258 61.4929 209.177 65.7999 207.19C69.5499 205.446 73.1069 203.273 76.6859 201.174C79.3829 199.588 82.1889 198.629 85.3449 198.875C85.5909 198.895 85.8369 198.941 86.5299 199.038C86.2899 201.394 86.3469 203.805 85.7689 206.047C84.6059 210.542 85.6309 213.079 89.8749 214.989C90.2409 215.152 90.6249 215.298 90.9909 215.461C95.4979 217.488 96.8209 220.086 95.8759 224.936C95.4519 227.126 95.0519 229.32 94.7079 231.521C94.0779 235.507 95.6929 238.602 99.3469 240.323C107.49 244.162 115.673 244.48 123.421 239.59C126.204 237.835 128.312 234.968 130.659 232.552C131.862 231.315 132.858 229.892 134.055 228.655C135.659 226.997 137.651 226.619 139.776 227.484C144.695 229.483 149.231 231.965 152.689 236.234C155.919 240.223 160.283 240.792 164.961 239.163C166.725 238.544 168.443 237.763 170.092 236.898C175.95 233.86 180.222 234.688 184.54 239.698C186.687 242.186 188.875 244.649 191.137 247.034C194.647 250.719 199.034 252.792 204.022 253.625C208.878 254.441 212.234 257.155 214.135 261.645C215.624 265.129 216.809 268.746 218.407 272.176C221.31 278.409 226.126 282.913 232.036 286.26C235.552 288.253 239.417 288.571 243.38 288.19C247.956 287.763 252.526 287.786 256.849 289.565C258.75 290.344 260.629 291.326 262.261 292.563C266.539 295.796 270.696 299.197 274.877 302.559C277.763 304.87 278.868 308.154 277.563 311.335C276.841 313.085 275.908 314.94 274.557 316.194C267.851 322.376 264.948 330.261 263.671 339.008C263.156 342.561 262.457 346.097 261.609 349.582C259.822 356.912 255.207 361.783 248.066 364.09C244.899 365.112 241.584 365.673 238.337 366.446C237.604 366.621 236.854 366.784 236.138 367.033C231.814 368.562 229.896 372.061 231.047 376.513C231.677 378.952 232.702 381.306 233.235 383.763C234.586 390.005 232.817 395.648 229.232 400.699C223.832 408.292 218.312 415.808 212.7 423.253C208.279 429.128 202.032 432.104 195.039 433.71C191.386 434.555 187.726 435.336 184.073 436.147C183.739 436.223 183.424 436.363 183.012 436.495Z" fill="url(#paint1_linear_1_30)"/>
<path fill-rule="evenodd" clip-rule="evenodd" d="M441.528 404.592C439.799 402.387 438.143 400.214 436.403 398.115C435.4 396.912 434.352 395.727 433.15 394.714C429.147 391.335 427.773 387.04 428.369 381.946C428.793 378.324 429.165 374.699 429.509 371.069C429.812 367.796 428.856 364.967 426.354 362.745C424.876 361.419 424.137 359.733 424.023 357.788C423.713 352.654 424.401 347.727 426.806 343.062C431.221 334.487 430.236 326.407 424.069 319.037C415.799 309.144 412.844 297.826 414.821 285.159C415.067 283.607 414.729 282.86 413.206 282.247C406.97 279.71 400.785 277.053 394.618 274.371C392.241 273.34 389.825 273.122 387.34 273.615C378.194 275.405 369.077 277.262 359.933 279.044C356.955 279.619 353.96 280.118 350.948 280.539C347.472 281.023 344.546 279.866 342.29 277.183C336.483 270.283 330.728 263.348 324.939 256.428C321.852 252.734 321.245 248.431 321.835 243.844C322.127 241.588 322.482 239.337 322.866 237.092C323.336 234.318 324.767 232.004 326.451 229.805C329.257 226.137 329.114 224.482 325.758 221.39C321.394 217.355 321.984 210.186 327.184 206.83C333.1 203.019 339.169 199.474 345.188 195.818C346.568 194.979 348.011 194.243 349.375 193.364C351.7 191.869 352.456 189.639 352.341 186.959C352.215 184.09 351.969 181.181 352.261 178.34C352.725 173.845 356.138 170.936 360.571 171.586C369.837 172.935 378.701 171.168 387.594 169.003C395.548 167.067 403.616 166.037 411.834 166.684C413.185 166.793 414.548 167.022 415.865 167.343C418.007 167.861 419.192 169.316 419.083 171.532C418.969 174.1 418.619 176.657 418.345 179.42C419.777 179.815 421.26 180.251 422.76 180.654C430.714 182.819 438.674 184.98 446.628 187.145C448.649 187.692 448.999 187.495 449.949 185.63C450.883 183.835 451.799 182.005 452.95 180.361C454.994 177.429 457.583 176.628 460.766 178.214C466.882 181.258 472.895 184.508 478.902 187.755C480.82 188.786 481.548 190.796 482.011 192.789C483.803 200.571 485.716 208.339 487.234 216.185C490.235 231.795 491.535 247.581 491.357 263.48C491.111 286.12 487.664 308.264 480.734 329.816C472.294 356.044 459.947 380.306 443.426 402.408C442.934 403.053 442.43 403.682 441.92 404.321C441.854 404.386 441.758 404.429 441.528 404.592Z" fill="url(#paint2_linear_1_30)"/>
<path fill-rule="evenodd" clip-rule="evenodd" d="M381.257 120.407C380.313 120.407 379.367 120.41 378.422 120.398C375.914 120.372 373.91 119.353 372.461 117.3C370.635 114.689 371.333 112.054 374.213 110.637C374.935 110.273 375.691 109.964 376.384 109.552C378.434 108.323 378.566 107.187 376.854 105.469C375.491 104.106 374.087 102.792 372.765 101.409C371.854 100.452 370.984 99.445 370.216 98.388C368.86 96.535 368.928 95.153 370.549 93.521C371.545 92.527 372.661 91.608 373.853 90.864C376.109 89.452 378.48 90.718 378.715 93.352C379.161 98.32 381.451 102.319 385.242 105.449C387.43 107.244 389.766 108.862 392.04 110.563C392.47 110.892 392.91 111.213 393.432 111.602C392.235 113.787 391.113 115.871 389.955 117.935C389.394 118.923 389.394 119.75 390.465 120.472C393.574 119.1 396.186 117.288 397.401 113.786C398.002 112.048 399.095 110.439 400.161 108.919C401.845 106.494 404.318 106.188 407.061 106.588C412.02 107.307 416.991 107.908 421.967 108.535C422.654 108.624 423.364 108.544 424.229 108.544C422.981 104.349 421.766 100.246 420.518 96.051C418.308 96.624 416.211 97.171 414.122 97.715C413.922 97.764 413.732 97.844 413.532 97.89C409.753 98.746 408.739 98.036 408.465 94.171C408.304 92.087 407.394 90.738 405.436 89.873C402.807 88.716 400.293 87.319 397.464 85.896C399.314 83.611 400.883 81.363 402.755 79.399C404.685 77.372 406.741 77.389 409.101 79.344C412.296 81.99 415.48 84.678 418.463 87.553C435.689 104.157 450.182 122.863 461.744 143.822C462.934 145.992 463.17 147.805 462.058 150.064C460.535 153.199 459.378 156.506 458.043 159.733C457.689 160.563 457.339 161.42 456.835 162.17C455.907 163.553 454.459 163.954 453.348 162.774C451.143 160.438 449.081 157.93 447.261 155.278C446.671 154.422 446.78 152.907 446.934 151.744C447.461 147.976 446.316 144.829 443.642 142.235C441.689 140.331 439.593 138.562 437.618 136.677C436.243 135.374 434.703 134.567 432.813 134.309C429.761 133.882 426.732 133.318 423.513 132.791C423.375 135.482 423.949 137.822 425.099 140.049C426.325 142.425 428.352 144.009 430.482 145.501C434.211 148.112 437.921 150.752 441.815 153.509C439.525 156.759 437.452 159.865 435.195 162.823C434.125 164.22 432.435 164.673 430.672 164.535C428.765 164.392 426.859 164.146 424.985 163.951C424.464 161.712 424.487 161.66 426.428 160.784C429.274 159.501 432.119 158.21 435.172 156.827C427.412 151.298 419.848 145.907 412.266 140.504C412.072 140.661 411.928 140.736 411.86 140.859C409.523 144.672 405.899 145.383 402.039 144.283C397.876 143.092 395.024 144.836 392.561 147.664C390.803 149.683 389.349 151.959 387.826 154.164C385.421 157.655 382.775 160.907 379.138 163.181C371.997 167.645 364.783 166.886 357.607 163.318C356.765 162.9 355.969 162.027 355.551 161.171C353.214 156.341 352.705 151.416 355.694 146.683C358.569 142.133 363.024 140.387 368.213 140.808C371.42 141.077 374.581 141.879 377.747 142.517C379.66 142.906 380.02 142.78 380.754 140.996C381.458 139.278 381.424 137.529 380.92 135.79C380.404 133.992 379.878 132.191 379.214 130.442C377.798 126.72 378.044 123.393 381.257 120.407Z" fill="url(#paint3_linear_1_30)"/>
<path fill-rule="evenodd" clip-rule="evenodd" d="M197.683 33.942C197.792 33.759 197.832 33.59 197.947 33.521C206.261 27.929 214.823 22.853 225.079 21.793C227.673 21.524 230.313 21.487 232.925 21.624C235.164 21.733 236.95 22.999 238.136 24.897C239.23 26.638 240.129 28.501 241.171 30.412C238.038 32.07 235.21 33.931 231.413 32.725C228.83 31.92 226.534 32.948 224.891 35.17C224.341 35.906 223.843 36.662 223.316 37.406C221.764 39.602 219.554 40.435 217.057 39.754C210.672 38.033 204.338 36.106 197.982 34.254C197.9 34.234 197.843 34.114 197.683 33.942Z" fill="url(#paint4_linear_1_30)"/>
<path fill-rule="evenodd" clip-rule="evenodd" d="M355.797 115.957C353.415 109.014 359.978 100.619 367.164 101.326C370.635 101.672 372.243 105.022 370.239 107.863C366.884 112.605 362.417 115.531 356.501 115.957C356.255 115.972 356.015 115.957 355.797 115.957Z" fill="url(#paint5_linear_1_30)"/>
<path fill-rule="evenodd" clip-rule="evenodd" d="M183.012 436.495C184.289 438.479 185.646 440.177 187.684 441.297C190.559 442.872 191.097 444.836 189.591 447.765C189.173 448.575 188.657 449.331 188.205 450.124C186.235 453.609 186.899 456.73 190.387 458.666C193.914 460.624 195.341 463.682 195.85 467.419C196.726 473.793 197.591 480.169 198.49 486.53C198.942 489.774 197.986 490.897 194.837 490.305C192.014 489.778 189.185 489.129 186.487 488.174C182.817 486.877 179.896 484.428 177.709 481.19C172.446 473.379 167.201 465.554 161.978 457.712C160.191 455.026 159.407 452.025 159.373 448.804C159.333 445.303 159.207 441.809 159.126 438.316C159.069 435.782 158.187 433.528 156.469 431.699C151.905 426.829 150.044 420.962 150.239 414.445C150.416 408.641 149.534 403.035 147.868 397.526C146.43 392.756 146.774 387.897 146.94 383.049C147.174 376.521 147.524 369.998 147.793 363.473C148.257 352.138 142.456 343.631 131.708 339.889C128.094 338.626 125.208 336.459 123.049 333.292C116.177 323.202 109.288 313.123 102.399 303.047C100.154 299.757 99.2899 296.17 100.017 292.221C100.412 290.076 100.693 287.911 101.145 285.79C102.514 279.382 106.202 274.632 111.705 271.196C113.291 270.205 114.854 269.175 116.412 268.135C119.184 266.3 119.905 263.726 119.172 260.582C117.311 252.668 109.912 247.411 101.821 248.058C95.7619 248.539 90.6769 246.308 86.7199 241.716C83.5189 237.994 80.3519 234.226 77.4079 230.289C74.7799 226.784 71.4069 225 67.1059 224.717C65.2389 224.599 63.3779 224.396 61.5109 224.17C59.3119 223.9 58.5619 223.128 58.4699 220.943C58.3899 219.236 58.4529 217.521 58.4529 215.471C55.5379 215.855 52.7259 215.909 50.0859 216.619C40.5229 219.204 32.3169 216.717 25.0099 210.414C24.5059 209.985 24.0649 209.495 23.5669 209.06C21.2589 207.013 20.3769 204.398 21.2189 201.504C23.4919 193.682 25.6399 185.811 28.3769 178.151C39.4229 147.265 56.2709 119.878 78.7819 96.013C90.0919 84.033 102.575 73.405 115.935 63.802C118.615 61.875 121.215 59.862 123.935 57.832C124.519 58.51 125.04 59.169 125.607 59.793C128.831 63.323 133.063 64.715 137.61 65.394C141.263 65.932 144.923 66.459 148.593 66.909C150.088 67.098 150.763 67.725 150.924 69.311C151.285 73.09 151.806 76.853 152.356 80.606C152.448 81.216 152.952 82.181 153.347 82.227C154.017 82.293 155.076 81.964 155.409 81.44C156.44 79.788 157.591 78.07 158.003 76.206C158.988 71.803 161.599 69.237 165.888 68.43C169.816 67.691 173.813 67.342 177.753 66.643C182.14 65.861 183.537 63.869 182.878 59.494C182.259 55.388 181.503 51.313 180.851 47.21C180.719 46.368 180.513 45.415 180.765 44.659C181.08 43.742 181.664 42.52 182.443 42.225C186.973 40.484 191.674 39.408 196.547 40.59C202.239 41.959 205.194 45.844 206.191 51.444C206.386 52.532 206.655 53.629 207.079 54.648C207.926 56.707 209.41 57.399 211.482 56.606C212.977 56.033 214.431 55.277 215.789 54.41C217.873 53.064 219.849 51.547 221.882 50.135C222.38 49.783 222.902 49.457 223.457 49.233C225.398 48.463 226.131 49.073 226.08 51.166C225.902 58.287 227.941 64.85 231.268 71.063C232.253 72.884 233.387 74.625 234.389 76.443C236.17 79.693 235.884 81.712 233.284 84.374C232.437 85.239 231.526 86.052 230.616 86.853C229.717 87.658 228.778 88.425 227.747 89.29C231.457 91.22 235.042 93.076 238.81 95.028C236.645 97.499 234.068 98.97 230.873 99.251C226.767 99.609 223.4 98.335 221.069 94.759C220.147 93.35 220.038 92.002 220.834 90.49C222.432 87.452 223.955 84.377 225.661 81.021C223.136 81.384 221.052 81.954 219.339 83.626C218.222 84.723 217.003 85.713 215.783 86.692C213.83 88.25 211.729 88.396 209.553 87.162C206.736 85.564 203.929 83.941 201.129 82.32C196.8 79.832 195.385 80.227 193.066 84.585C192.659 85.332 192.27 86.097 191.789 87.03C193.593 88.27 195.368 89.487 197.149 90.706C198.157 91.391 199.222 91.998 200.144 92.779C200.591 93.157 200.757 93.864 201.061 94.42C200.465 94.686 199.853 95.219 199.286 95.176C196.606 95.001 193.943 94.672 191.275 94.383C190.467 94.292 189.677 94.111 188.87 94.063C184.879 93.802 181.643 95.277 180.017 98.936C175.51 109.081 167.676 115.955 158.548 121.673C155.032 123.875 151.562 126.156 148.08 128.422C144.81 130.549 142.124 133.143 141.282 137.175C141.248 137.367 141.151 137.567 141.156 137.759C141.357 142.174 138.751 144.825 135.407 147.102C131.06 150.062 126.702 153.029 122.505 156.21C118.233 159.448 116.057 163.909 115.862 169.304C115.85 169.759 115.833 170.215 115.736 170.661C114.825 175.193 113.274 176.238 108.704 175.371C108.108 175.256 107.518 175.093 106.934 174.938C103.744 174.108 103.424 173.707 103.418 170.486C103.406 167.268 103.424 167.202 105.296 163.591C99.2319 163.092 93.2359 162.597 87.2399 162.128C84.2559 161.899 81.2729 161.718 78.2889 161.535C74.8819 161.326 71.7439 162.197 68.9609 164.146C61.7109 169.229 55.4579 175.307 50.5789 182.726C46.2899 189.237 46.4389 195.015 51.0719 201.277C52.0049 202.534 53.0419 203.734 54.1349 204.851C57.4789 208.258 61.4929 209.177 65.7999 207.19C69.5499 205.446 73.1069 203.273 76.6859 201.174C79.3829 199.588 82.1889 198.629 85.3449 198.875C85.5909 198.895 85.8369 198.941 86.5299 199.038C86.2899 201.394 86.3469 203.805 85.7689 206.047C84.6059 210.542 85.6309 213.079 89.8749 214.989C90.2409 215.152 90.6249 215.298 90.9909 215.461C95.4979 217.488 96.8209 220.086 95.8759 224.936C95.4519 227.126 95.0519 229.32 94.7079 231.521C94.0779 235.507 95.6929 238.602 99.3469 240.323C107.49 244.162 115.673 244.48 123.421 239.59C126.204 237.835 128.312 234.968 130.659 232.552C131.862 231.315 132.858 229.892 134.055 228.655C135.659 226.997 137.651 226.619 139.776 227.484C144.695 229.483 149.231 231.965 152.689 236.234C155.919 240.223 160.283 240.792 164.961 239.163C166.725 238.544 168.443 237.763 170.092 236.898C175.95 233.86 180.222 234.688 184.54 239.698C186.687 242.186 188.875 244.649 191.137 247.034C194.647 250.719 199.034 252.792 204.022 253.625C208.878 254.441 212.234 257.155 214.135 261.645C215.624 265.129 216.809 268.746 218.407 272.176C221.31 278.409 226.126 282.913 232.036 286.26C235.552 288.253 239.417 288.571 243.38 288.19C247.956 287.763 252.526 287.786 256.849 289.565C258.75 290.344 260.629 291.326 262.261 292.563C266.539 295.796 270.696 299.197 274.877 302.559C277.763 304.87 278.868 308.154 277.563 311.335C276.841 313.085 275.908 314.94 274.557 316.194C267.851 322.376 264.948 330.261 263.671 339.008C263.156 342.561 262.457 346.097 261.609 349.582C259.822 356.912 255.207 361.783 248.066 364.09C244.899 365.112 241.584 365.673 238.337 366.446C237.604 366.621 236.854 366.784 236.138 367.033C231.814 368.562 229.896 372.061 231.047 376.513C231.677 378.952 232.702 381.306 233.235 383.763C234.586 390.005 232.817 395.648 229.232 400.699C223.832 408.292 218.312 415.808 212.7 423.253C208.279 429.128 202.032 432.104 195.039 433.71C191.386 434.555 187.726 435.336 184.073 436.147C183.739 436.223 183.424 436.363 183.012 436.495Z" fill="white"/>
<path fill-rule="evenodd" clip-rule="evenodd" d="M441.528 404.592C439.799 402.387 438.143 400.214 436.403 398.115C435.4 396.912 434.352 395.727 433.15 394.714C429.147 391.335 427.773 387.04 428.369 381.946C428.793 378.324 429.165 374.699 429.509 371.069C429.812 367.796 428.856 364.967 426.354 362.745C424.876 361.419 424.137 359.733 424.023 357.788C423.713 352.654 424.401 347.727 426.806 343.062C431.221 334.487 430.236 326.407 424.069 319.037C415.799 309.144 412.844 297.826 414.821 285.159C415.067 283.607 414.729 282.86 413.206 282.247C406.97 279.71 400.785 277.053 394.618 274.371C392.241 273.34 389.825 273.122 387.34 273.615C378.194 275.405 369.077 277.262 359.933 279.044C356.955 279.619 353.96 280.118 350.948 280.539C347.472 281.023 344.546 279.866 342.29 277.183C336.483 270.283 330.728 263.348 324.939 256.428C321.852 252.734 321.245 248.431 321.835 243.844C322.127 241.588 322.482 239.337 322.866 237.092C323.336 234.318 324.767 232.004 326.451 229.805C329.257 226.137 329.114 224.482 325.758 221.39C321.394 217.355 321.984 210.186 327.184 206.83C333.1 203.019 339.169 199.474 345.188 195.818C346.568 194.979 348.011 194.243 349.375 193.364C351.7 191.869 352.456 189.639 352.341 186.959C352.215 184.09 351.969 181.181 352.261 178.34C352.725 173.845 356.138 170.936 360.571 171.586C369.837 172.935 378.701 171.168 387.594 169.003C395.548 167.067 403.616 166.037 411.834 166.684C413.185 166.793 414.548 167.022 415.865 167.343C418.007 167.861 419.192 169.316 419.083 171.532C418.969 174.1 418.619 176.657 418.345 179.42C419.777 179.815 421.26 180.251 422.76 180.654C430.714 182.819 438.674 184.98 446.628 187.145C448.649 187.692 448.999 187.495 449.949 185.63C450.883 183.835 451.799 182.005 452.95 180.361C454.994 177.429 457.583 176.628 460.766 178.214C466.882 181.258 472.895 184.508 478.902 187.755C480.82 188.786 481.548 190.796 482.011 192.789C483.803 200.571 485.716 208.339 487.234 216.185C490.235 231.795 491.535 247.581 491.357 263.48C491.111 286.12 487.664 308.264 480.734 329.816C472.294 356.044 459.947 380.306 443.426 402.408C442.934 403.053 442.43 403.682 441.92 404.321C441.854 404.386 441.758 404.429 441.528 404.592Z" fill="white"/>
<path fill-rule="evenodd" clip-rule="evenodd" d="M381.257 120.407C380.313 120.407 379.367 120.41 378.422 120.398C375.914 120.372 373.91 119.353 372.461 117.3C370.635 114.689 371.333 112.054 374.213 110.637C374.935 110.273 375.691 109.964 376.384 109.552C378.434 108.323 378.566 107.187 376.854 105.469C375.491 104.106 374.087 102.792 372.765 101.409C371.854 100.452 370.984 99.445 370.216 98.388C368.86 96.535 368.928 95.153 370.549 93.521C371.545 92.527 372.661 91.608 373.853 90.864C376.109 89.452 378.48 90.718 378.715 93.352C379.161 98.32 381.451 102.319 385.242 105.449C387.43 107.244 389.766 108.862 392.04 110.563C392.47 110.892 392.91 111.213 393.432 111.602C392.235 113.787 391.113 115.871 389.955 117.935C389.394 118.923 389.394 119.75 390.465 120.472C393.574 119.1 396.186 117.288 397.401 113.786C398.002 112.048 399.095 110.439 400.161 108.919C401.845 106.494 404.318 106.188 407.061 106.588C412.02 107.307 416.991 107.908 421.967 108.535C422.654 108.624 423.364 108.544 424.229 108.544C422.981 104.349 421.766 100.246 420.518 96.051C418.308 96.624 416.211 97.171 414.122 97.715C413.922 97.764 413.732 97.844 413.532 97.89C409.753 98.746 408.739 98.036 408.465 94.171C408.304 92.087 407.394 90.738 405.436 89.873C402.807 88.716 400.293 87.319 397.464 85.896C399.314 83.611 400.883 81.363 402.755 79.399C404.685 77.372 406.741 77.389 409.101 79.344C412.296 81.99 415.48 84.678 418.463 87.553C435.689 104.157 450.182 122.863 461.744 143.822C462.934 145.992 463.17 147.805 462.058 150.064C460.535 153.199 459.378 156.506 458.043 159.733C457.689 160.563 457.339 161.42 456.835 162.17C455.907 163.553 454.459 163.954 453.348 162.774C451.143 160.438 449.081 157.93 447.261 155.278C446.671 154.422 446.78 152.907 446.934 151.744C447.461 147.976 446.316 144.829 443.642 142.235C441.689 140.331 439.593 138.562 437.618 136.677C436.243 135.374 434.703 134.567 432.813 134.309C429.761 133.882 426.732 133.318 423.513 132.791C423.375 135.482 423.949 137.822 425.099 140.049C426.325 142.425 428.352 144.009 430.482 145.501C434.211 148.112 437.921 150.752 441.815 153.509C439.525 156.759 437.452 159.865 435.195 162.823C434.125 164.22 432.435 164.673 430.672 164.535C428.765 164.392 426.859 164.146 424.985 163.951C424.464 161.712 424.487 161.66 426.428 160.784C429.274 159.501 432.119 158.21 435.172 156.827C427.412 151.298 419.848 145.907 412.266 140.504C412.072 140.661 411.928 140.736 411.86 140.859C409.523 144.672 405.899 145.383 402.039 144.283C397.876 143.092 395.024 144.836 392.561 147.664C390.803 149.683 389.349 151.959 387.826 154.164C385.421 157.655 382.775 160.907 379.138 163.181C371.997 167.645 364.783 166.886 357.607 163.318C356.765 162.9 355.969 162.027 355.551 161.171C353.214 156.341 352.705 151.416 355.694 146.683C358.569 142.133 363.024 140.387 368.213 140.808C371.42 141.077 374.581 141.879 377.747 142.517C379.66 142.906 380.02 142.78 380.754 140.996C381.458 139.278 381.424 137.529 380.92 135.79C380.404 133.992 379.878 132.191 379.214 130.442C377.798 126.72 378.044 123.393 381.257 120.407Z" fill="white"/>
<path fill-rule="evenodd" clip-rule="evenodd" d="M197.683 33.942C197.792 33.759 197.832 33.59 197.947 33.521C206.261 27.929 214.823 22.853 225.079 21.793C227.673 21.524 230.313 21.487 232.925 21.624C235.164 21.733 236.95 22.999 238.136 24.897C239.23 26.638 240.129 28.501 241.171 30.412C238.038 32.07 235.21 33.931 231.413 32.725C228.83 31.92 226.534 32.948 224.891 35.17C224.341 35.906 223.843 36.662 223.316 37.406C221.764 39.602 219.554 40.435 217.057 39.754C210.672 38.033 204.338 36.106 197.982 34.254C197.9 34.234 197.843 34.114 197.683 33.942Z" fill="white"/>
<path fill-rule="evenodd" clip-rule="evenodd" d="M355.797 115.957C353.415 109.014 359.978 100.619 367.164 101.326C370.635 101.672 372.243 105.022 370.239 107.863C366.884 112.605 362.417 115.531 356.501 115.957C356.255 115.972 356.015 115.957 355.797 115.957Z" fill="white"/>
<path fill-rule="evenodd" clip-rule="evenodd" d="M42.1659 143.538C42.8159 143.538 43.4629 143.538 44.1129 143.538C44.4109 143.585 44.7029 143.628 44.9949 143.681C50.0859 144.578 53.4529 147.479 55.0619 152.384C55.3279 153.206 55.4169 154.088 55.5949 154.94C55.5949 155.388 55.5949 155.84 55.5949 156.292C55.5719 156.389 55.5399 156.485 55.5289 156.581C55.4289 157.876 55.0789 159.109 54.5809 160.303C53.4699 162.957 51.9379 165.365 50.2369 167.676C49.5559 168.6 48.8569 169.51 48.1469 170.452C48.3299 170.511 48.4789 170.565 48.6309 170.611C49.7359 170.933 50.7609 171.403 51.6259 172.177C53.1259 173.518 53.1179 175.311 51.6209 176.658C50.6959 177.491 49.5649 177.936 48.3909 178.257C45.2989 179.093 42.1719 179.133 39.0399 178.532C37.3939 178.219 35.8389 177.651 34.5529 176.513C33.3129 175.413 33.2039 173.747 34.3089 172.512C35.0479 171.686 35.9779 171.175 37.0179 170.844C37.3809 170.728 37.7479 170.621 38.1689 170.492C38.0569 170.35 37.9769 170.245 37.9029 170.136C36.5859 168.282 35.2339 166.456 33.9739 164.565C32.7259 162.687 31.6889 160.69 31.1169 158.492C30.9109 157.723 30.8249 156.923 30.6849 156.141C30.6849 155.764 30.6849 155.388 30.6849 155.016C30.7329 154.708 30.7759 154.4 30.8339 154.096C31.7789 148.942 34.7559 145.571 39.7529 144.007C40.5279 143.759 41.3549 143.69 42.1659 143.538ZM40.3469 156.439C40.3469 157.997 41.5869 159.219 43.1649 159.218C44.6819 159.218 45.9909 157.928 45.9819 156.447C45.9699 154.924 44.6789 153.662 43.1329 153.659C41.6019 153.659 40.3449 154.91 40.3469 156.439Z" fill="white"/>
<path fill-rule="evenodd" clip-rule="evenodd" d="M40.3469 156.439C40.3449 154.91 41.6009 153.659 43.1329 153.659C44.6789 153.662 45.9699 154.924 45.9819 156.447C45.9899 157.929 44.6819 159.218 43.1649 159.218C41.5869 159.219 40.3469 157.997 40.3469 156.439Z" fill="white"/>
<path fill-rule="evenodd" clip-rule="evenodd" d="M31.7059 155.636C31.8259 149.853 36.2899 145.077 42.0539 144.596C47.9469 144.105 53.0969 147.975 54.2339 153.736C54.6749 155.989 54.2539 158.11 53.3439 160.171C52.1609 162.848 50.5519 165.265 48.8029 167.591C47.0109 169.976 45.1579 172.319 43.3339 174.679C43.1709 174.89 43.0159 174.947 42.8389 174.71C40.2139 171.234 37.3609 167.928 35.0199 164.239C33.9029 162.472 32.8779 160.658 32.2369 158.653C32.0739 158.139 31.9449 157.61 31.8529 157.078C31.7659 156.604 31.7519 156.119 31.7059 155.636ZM43.0839 152.492C40.9509 152.482 39.1849 154.203 39.1649 156.32C39.1439 158.478 40.8919 160.236 43.0589 160.244C45.1919 160.252 46.9709 158.523 46.9909 156.416C47.0069 154.268 45.2609 152.506 43.0839 152.492Z" fill="#3B82F6"/>
<path fill-rule="evenodd" clip-rule="evenodd" d="M43.1899 177.766C40.9339 177.723 38.8269 177.533 36.8449 176.663C36.2429 176.398 35.6589 176.03 35.1759 175.589C34.3429 174.832 34.3799 173.836 35.1699 173.031C35.7029 172.493 36.3499 172.135 37.0449 171.885C37.7269 171.645 38.4369 171.477 39.1319 171.268C39.3699 171.193 39.5269 171.255 39.6849 171.462C40.5869 172.642 41.5089 173.81 42.4219 174.985C42.8279 175.507 43.3209 175.507 43.7299 174.981C44.6439 173.81 45.5599 172.639 46.4639 171.46C46.6099 171.272 46.7419 171.202 46.9879 171.258C48.0209 171.494 49.0499 171.762 49.9769 172.307C50.3689 172.537 50.7469 172.818 51.0619 173.146C51.7489 173.863 51.7349 174.765 51.0679 175.505C50.5919 176.044 49.9799 176.385 49.3269 176.666C47.8499 177.3 46.2839 177.562 44.6949 177.691C44.1549 177.734 43.6139 177.746 43.1899 177.766Z" fill="#3B82F6"/>
<path fill-rule="evenodd" clip-rule="evenodd" d="M43.084 152.492C45.26 152.506 47.007 154.267 46.99 156.416C46.97 158.523 45.192 160.252 43.058 160.244C40.891 160.235 39.144 158.477 39.164 156.32C39.185 154.203 40.952 152.482 43.084 152.492Z" fill="white"/>
<path fill-rule="evenodd" clip-rule="evenodd" d="M126.213 98.264C126.863 98.264 127.51 98.264 128.16 98.264C128.458 98.311 128.75 98.354 129.042 98.407C134.133 99.305 137.5 102.205 139.109 107.11C139.375 107.932 139.464 108.814 139.641 109.665C139.641 110.113 139.641 110.566 139.641 111.017C139.619 111.114 139.587 111.21 139.576 111.306C139.475 112.602 139.126 113.834 138.628 115.028C137.517 117.682 135.985 120.091 134.284 122.401C133.603 123.324 132.904 124.235 132.194 125.177C132.378 125.236 132.527 125.29 132.678 125.336C133.783 125.658 134.808 126.128 135.673 126.902C137.173 128.243 137.165 130.036 135.667 131.383C134.742 132.216 133.611 132.661 132.438 132.982C129.346 133.818 126.219 133.858 123.086 133.257C121.44 132.945 119.885 132.377 118.599 131.238C117.359 130.138 117.251 128.472 118.356 127.237C119.095 126.411 120.025 125.9 121.064 125.569C121.428 125.453 121.794 125.346 122.215 125.217C122.103 125.075 122.023 124.971 121.948 124.861C120.631 123.007 119.28 121.182 118.02 119.291C116.771 117.413 115.735 115.416 115.163 113.218C114.957 112.449 114.871 111.649 114.73 110.867C114.73 110.491 114.73 110.114 114.73 109.742C114.779 109.434 114.822 109.126 114.879 108.821C115.824 103.667 118.802 100.296 123.798 98.733C124.575 98.486 125.403 98.417 126.213 98.264ZM124.395 111.166C124.395 112.724 125.635 113.946 127.212 113.945C128.73 113.945 130.038 112.655 130.029 111.174C130.018 109.651 128.726 108.389 127.18 108.386C125.649 108.385 124.392 109.637 124.395 111.166Z" fill="white"/>
<path fill-rule="evenodd" clip-rule="evenodd" d="M124.395 111.166C124.392 109.637 125.649 108.386 127.181 108.386C128.727 108.389 130.018 109.65 130.03 111.174C130.039 112.655 128.73 113.945 127.213 113.945C125.635 113.946 124.395 112.723 124.395 111.166Z" fill="white"/>
<path fill-rule="evenodd" clip-rule="evenodd" d="M115.754 110.362C115.874 104.58 120.338 99.804 126.102 99.323C131.995 98.832 137.145 102.701 138.282 108.462C138.723 110.715 138.302 112.836 137.392 114.898C136.209 117.575 134.6 119.992 132.85 122.318C131.058 124.703 129.205 127.045 127.381 129.406C127.218 129.618 127.063 129.674 126.886 129.438C124.261 125.962 121.408 122.656 119.066 118.967C117.949 117.2 116.924 115.386 116.283 113.381C116.119 112.867 115.991 112.337 115.899 111.806C115.814 111.33 115.8 110.845 115.754 110.362ZM127.132 107.218C124.999 107.208 123.232 108.929 123.212 111.047C123.192 113.204 124.939 114.963 127.106 114.971C129.239 114.98 131.017 113.25 131.037 111.143C131.055 108.994 129.309 107.233 127.132 107.218Z" fill="#3B82F6"/>
<path fill-rule="evenodd" clip-rule="evenodd" d="M127.238 132.493C124.982 132.45 122.874 132.26 120.893 131.39C120.291 131.125 119.707 130.757 119.224 130.316C118.391 129.559 118.428 128.562 119.218 127.758C119.751 127.219 120.398 126.862 121.093 126.612C121.775 126.371 122.485 126.204 123.18 125.995C123.418 125.921 123.575 125.982 123.732 126.19C124.634 127.37 125.556 128.538 126.469 129.713C126.876 130.236 127.368 130.236 127.778 129.709C128.692 128.538 129.608 127.367 130.512 126.187C130.658 125.999 130.79 125.929 131.036 125.985C132.07 126.221 133.098 126.489 134.025 127.034C134.418 127.264 134.796 127.545 135.11 127.873C135.797 128.59 135.783 129.492 135.116 130.232C134.64 130.77 134.028 131.112 133.375 131.393C131.897 132.027 130.332 132.289 128.742 132.418C128.203 132.461 127.662 132.472 127.238 132.493Z" fill="#3B82F6"/>
<path fill-rule="evenodd" clip-rule="evenodd" d="M127.132 107.218C129.308 107.233 131.055 108.993 131.037 111.142C131.017 113.249 129.239 114.979 127.106 114.97C124.939 114.962 123.192 113.203 123.212 111.046C123.232 108.929 124.999 107.208 127.132 107.218Z" fill="white"/>
<path fill-rule="evenodd" clip-rule="evenodd" d="M242.713 295.351C243.363 295.351 244.01 295.351 244.66 295.351C244.958 295.4 245.25 295.443 245.542 295.494C250.633 296.393 254 299.293 255.609 304.198C255.876 305.02 255.964 305.902 256.142 306.752C256.142 307.202 256.142 307.654 256.142 308.104C256.119 308.201 256.088 308.298 256.076 308.396C255.976 309.69 255.626 310.921 255.128 312.118C254.017 314.769 252.485 317.18 250.785 319.488C250.103 320.413 249.405 321.323 248.695 322.265C248.878 322.322 249.027 322.379 249.179 322.425C250.284 322.746 251.309 323.216 252.174 323.988C253.674 325.331 253.666 327.123 252.168 328.472C251.243 329.302 250.112 329.749 248.938 330.07C245.846 330.906 242.719 330.946 239.587 330.345C237.941 330.033 236.386 329.463 235.1 328.326C233.86 327.226 233.751 325.56 234.857 324.326C235.595 323.498 236.526 322.986 237.565 322.657C237.929 322.54 238.295 322.434 238.716 322.305C238.605 322.162 238.524 322.059 238.45 321.95C237.133 320.095 235.782 318.268 234.522 316.378C233.273 314.5 232.237 312.502 231.664 310.305C231.458 309.535 231.372 308.736 231.232 307.954C231.232 307.576 231.232 307.201 231.232 306.829C231.281 306.523 231.324 306.214 231.381 305.91C232.326 300.756 235.303 297.383 240.3 295.82C241.075 295.574 241.903 295.505 242.713 295.351ZM240.895 308.253C240.895 309.811 242.135 311.036 243.712 311.033C245.23 311.033 246.538 309.741 246.529 308.261C246.517 306.738 245.226 305.475 243.68 305.475C242.149 305.476 240.892 306.724 240.895 308.253Z" fill="white"/>
<path fill-rule="evenodd" clip-rule="evenodd" d="M240.895 308.253C240.892 306.724 242.149 305.476 243.681 305.476C245.227 305.476 246.518 306.739 246.53 308.262C246.538 309.742 245.23 311.034 243.713 311.034C242.135 311.036 240.895 309.811 240.895 308.253Z" fill="white"/>
<path fill-rule="evenodd" clip-rule="evenodd" d="M232.253 307.451C232.374 301.667 236.837 296.891 242.601 296.41C248.494 295.92 253.644 299.788 254.781 305.549C255.222 307.805 254.801 309.924 253.89 311.986C252.707 314.663 251.098 317.08 249.349 319.408C247.557 321.79 245.704 324.132 243.88 326.494C243.716 326.706 243.562 326.76 243.384 326.525C240.759 323.049 237.906 319.745 235.565 316.054C234.448 314.287 233.423 312.472 232.782 310.468C232.619 309.953 232.49 309.426 232.398 308.893C232.313 308.419 232.299 307.932 232.253 307.451ZM243.632 304.307C241.499 304.296 239.733 306.019 239.713 308.135C239.693 310.291 241.44 312.049 243.607 312.061C245.74 312.067 247.518 310.337 247.538 308.23C247.555 306.083 245.808 304.322 243.632 304.307Z" fill="#3B82F6"/>
<path fill-rule="evenodd" clip-rule="evenodd" d="M243.738 329.581C241.482 329.538 239.374 329.349 237.393 328.479C236.792 328.215 236.207 327.846 235.724 327.405C234.891 326.647 234.928 325.65 235.719 324.848C236.251 324.31 236.899 323.949 237.594 323.702C238.275 323.462 238.985 323.293 239.681 323.084C239.919 323.009 240.077 323.072 240.234 323.279C241.136 324.458 242.058 325.627 242.971 326.8C243.378 327.324 243.87 327.324 244.28 326.797C245.193 325.626 246.11 324.455 247.014 323.276C247.16 323.09 247.292 323.018 247.538 323.072C248.572 323.31 249.6 323.576 250.527 324.123C250.919 324.355 251.297 324.636 251.612 324.962C252.3 325.678 252.285 326.583 251.618 327.321C251.143 327.86 250.53 328.203 249.877 328.484C248.399 329.117 246.833 329.378 245.244 329.509C244.703 329.55 244.162 329.561 243.738 329.581Z" fill="#3B82F6"/>
<path fill-rule="evenodd" clip-rule="evenodd" d="M243.632 304.307C245.808 304.322 247.555 306.082 247.538 308.23C247.518 310.337 245.74 312.067 243.607 312.061C241.44 312.049 239.693 310.291 239.713 308.135C239.732 306.02 241.499 304.296 243.632 304.307Z" fill="white"/>
<path fill-rule="evenodd" clip-rule="evenodd" d="M355.814 242.453C356.463 242.453 357.111 242.453 357.76 242.453C358.058 242.502 358.35 242.544 358.642 242.596C363.733 243.495 367.1 246.395 368.709 251.3C368.976 252.122 369.064 253.004 369.242 253.854C369.242 254.304 369.242 254.756 369.242 255.206C369.219 255.303 369.187 255.4 369.176 255.498C369.075 256.792 368.727 258.023 368.229 259.22C367.118 261.871 365.585 264.282 363.885 266.59C363.203 267.515 362.505 268.425 361.794 269.367C361.978 269.424 362.127 269.481 362.278 269.527C363.383 269.848 364.408 270.318 365.273 271.09C366.773 272.433 366.764 274.225 365.267 275.574C364.342 276.404 363.211 276.851 362.038 277.172C358.945 278.008 355.819 278.048 352.686 277.447C351.04 277.135 349.485 276.565 348.2 275.428C346.96 274.328 346.851 272.662 347.956 271.428C348.695 270.6 349.626 270.088 350.665 269.759C351.028 269.642 351.395 269.536 351.816 269.407C351.704 269.264 351.624 269.16 351.549 269.052C350.232 267.197 348.88 265.37 347.62 263.48C346.372 261.602 345.335 259.604 344.763 257.407C344.557 256.637 344.471 255.838 344.331 255.056C344.331 254.678 344.331 254.303 344.331 253.931C344.38 253.625 344.423 253.316 344.48 253.012C345.425 247.858 348.403 244.485 353.399 242.922C354.177 242.676 355.004 242.607 355.814 242.453ZM353.996 255.354C353.996 256.912 355.235 258.137 356.813 258.134C358.331 258.134 359.639 256.843 359.63 255.363C359.618 253.84 358.327 252.577 356.781 252.577C355.25 252.577 353.993 253.825 353.996 255.354Z" fill="white"/>
<path fill-rule="evenodd" clip-rule="evenodd" d="M353.996 255.354C353.993 253.825 355.25 252.577 356.782 252.577C358.328 252.577 359.619 253.84 359.631 255.363C359.64 256.843 358.331 258.134 356.814 258.134C355.235 258.137 353.996 256.912 353.996 255.354Z" fill="white"/>
<path fill-rule="evenodd" clip-rule="evenodd" d="M345.354 254.553C345.475 248.769 349.938 243.993 355.702 243.512C361.595 243.023 366.746 246.891 367.883 252.652C368.323 254.908 367.903 257.027 366.992 259.089C365.809 261.766 364.2 264.183 362.451 266.51C360.658 268.892 358.806 271.235 356.982 273.597C356.819 273.809 356.664 273.863 356.487 273.628C353.861 270.152 351.009 266.848 348.667 263.157C347.551 261.39 346.525 259.575 345.884 257.571C345.721 257.056 345.592 256.529 345.5 255.996C345.415 255.521 345.4 255.034 345.354 254.553ZM356.733 251.409C354.599 251.398 352.833 253.121 352.813 255.237C352.792 257.393 354.54 259.151 356.707 259.163C358.841 259.168 360.619 257.439 360.639 255.332C360.656 253.184 358.909 251.423 356.733 251.409Z" fill="#3B82F6"/>
<path fill-rule="evenodd" clip-rule="evenodd" d="M356.839 276.683C354.583 276.64 352.476 276.451 350.494 275.58C349.892 275.317 349.308 274.948 348.825 274.506C347.992 273.747 348.029 272.751 348.819 271.949C349.351 271.411 349.999 271.05 350.694 270.803C351.376 270.563 352.086 270.394 352.782 270.185C353.019 270.11 353.177 270.173 353.335 270.379C354.236 271.559 355.158 272.727 356.072 273.901C356.478 274.425 356.97 274.425 357.38 273.898C358.294 272.727 359.21 271.556 360.114 270.377C360.26 270.191 360.392 270.119 360.638 270.173C361.671 270.411 362.7 270.677 363.627 271.224C364.02 271.456 364.398 271.737 364.712 272.063C365.4 272.779 365.385 273.684 364.718 274.422C364.242 274.961 363.63 275.304 362.977 275.585C361.499 276.218 359.934 276.479 358.345 276.61C357.804 276.651 357.263 276.663 356.839 276.683Z" fill="#3B82F6"/>
<path fill-rule="evenodd" clip-rule="evenodd" d="M356.733 251.409C358.909 251.424 360.656 253.184 360.638 255.332C360.618 257.439 358.84 259.168 356.706 259.163C354.539 259.151 352.792 257.393 352.812 255.237C352.833 253.121 354.6 251.397 356.733 251.409Z" fill="white"/>
<path fill-rule="evenodd" clip-rule="evenodd" d="M355.84 153.539C356.49 153.539 357.137 153.539 357.787 153.539C358.085 153.588 358.377 153.631 358.669 153.683C363.76 154.582 367.127 157.482 368.736 162.387C369.002 163.209 369.09 164.091 369.268 164.941C369.268 165.391 369.268 165.843 369.268 166.293C369.246 166.391 369.213 166.488 369.203 166.585C369.102 167.879 368.753 169.11 368.255 170.307C367.144 172.958 365.612 175.37 363.911 177.677C363.229 178.6 362.531 179.511 361.821 180.456C362.005 180.513 362.153 180.571 362.304 180.616C363.409 180.937 364.435 181.407 365.299 182.179C366.8 183.519 366.791 185.311 365.293 186.663C364.368 187.494 363.237 187.94 362.064 188.261C358.972 189.097 355.845 189.137 352.712 188.536C351.066 188.221 349.511 187.654 348.226 186.515C346.986 185.415 346.877 183.749 347.983 182.518C348.721 181.688 349.652 181.178 350.691 180.846C351.055 180.731 351.421 180.622 351.842 180.496C351.731 180.353 351.651 180.25 351.575 180.141C350.259 178.286 348.907 176.457 347.647 174.568C346.398 172.69 345.362 170.691 344.789 168.495C344.583 167.724 344.497 166.926 344.357 166.144C344.357 165.766 344.357 165.391 344.357 165.019C344.405 164.712 344.448 164.403 344.506 164.1C345.451 158.946 348.428 155.574 353.424 154.01C354.202 153.762 355.029 153.693 355.84 153.539ZM354.021 166.44C354.021 167.998 355.261 169.223 356.838 169.22C358.356 169.22 359.664 167.928 359.655 166.449C359.644 164.926 358.352 163.663 356.806 163.663C355.275 163.663 354.019 164.912 354.021 166.44Z" fill="white"/>
<path fill-rule="evenodd" clip-rule="evenodd" d="M354.021 166.44C354.018 164.911 355.275 163.663 356.807 163.663C358.353 163.663 359.645 164.926 359.656 166.449C359.665 167.929 358.356 169.22 356.839 169.22C355.262 169.224 354.021 167.998 354.021 166.44Z" fill="white"/>
<path fill-rule="evenodd" clip-rule="evenodd" d="M345.38 165.639C345.5 159.855 349.964 155.079 355.728 154.598C361.621 154.108 366.771 157.976 367.908 163.738C368.349 165.994 367.929 168.113 367.017 170.175C365.835 172.852 364.226 175.269 362.476 177.596C360.684 179.98 358.831 182.322 357.007 184.681C356.844 184.893 356.69 184.95 356.512 184.716C353.886 181.24 351.034 177.936 348.693 174.243C347.576 172.476 346.551 170.661 345.91 168.657C345.747 168.141 345.618 167.615 345.526 167.082C345.44 166.606 345.426 166.12 345.38 165.639ZM356.759 162.495C354.626 162.483 352.86 164.207 352.839 166.323C352.819 168.479 354.566 170.237 356.734 170.248C358.867 170.254 360.645 168.524 360.665 166.417C360.682 164.27 358.936 162.509 356.759 162.495Z" fill="#3B82F6"/>
<path fill-rule="evenodd" clip-rule="evenodd" d="M356.865 187.768C354.608 187.727 352.501 187.539 350.519 186.668C349.918 186.404 349.334 186.032 348.85 185.591C348.017 184.835 348.054 183.839 348.844 183.037C349.377 182.499 350.024 182.138 350.72 181.892C351.402 181.651 352.112 181.479 352.807 181.273C353.044 181.199 353.203 181.262 353.36 181.468C354.261 182.648 355.184 183.816 356.097 184.99C356.503 185.511 356.996 185.511 357.406 184.984C358.319 183.816 359.235 182.642 360.14 181.462C360.286 181.279 360.417 181.204 360.663 181.262C361.697 181.497 362.725 181.766 363.652 182.31C364.045 182.545 364.423 182.826 364.738 183.152C365.425 183.868 365.411 184.773 364.743 185.511C364.268 186.049 363.655 186.393 363.003 186.674C361.525 187.304 359.959 187.567 358.37 187.699C357.83 187.739 357.289 187.75 356.865 187.768Z" fill="#3B82F6"/>
<path fill-rule="evenodd" clip-rule="evenodd" d="M356.759 162.495C358.936 162.509 360.682 164.27 360.664 166.417C360.644 168.524 358.866 170.254 356.733 170.248C354.565 170.237 352.819 168.478 352.838 166.323C352.859 164.207 354.626 162.483 356.759 162.495Z" fill="white"/>
<defs>
<linearGradient id="paint0_linear_1_30" x1="0.141568" y1="256" x2="512.142" y2="256" gradientUnits="userSpaceOnUse">
<stop stop-color="#3B82F6"/>
<stop offset="1" stop-color="white"/>
</linearGradient>
<linearGradient id="paint1_linear_1_30" x1="20.9076" y1="265.274" x2="278.105" y2="265.274" gradientUnits="userSpaceOnUse">
<stop stop-color="white"/>
<stop offset="0.824" stop-color="white" stop-opacity="0.4817"/>
<stop offset="1" stop-color="white" stop-opacity="0"/>
</linearGradient>
<linearGradient id="paint2_linear_1_30" x1="321.631" y1="285.542" x2="491.37" y2="285.542" gradientUnits="userSpaceOnUse">
<stop stop-color="white"/>
<stop offset="0.824" stop-color="white" stop-opacity="0.4817"/>
<stop offset="1" stop-color="white" stop-opacity="0"/>
</linearGradient>
<linearGradient id="paint3_linear_1_30" x1="353.623" y1="122.073" x2="462.776" y2="122.073" gradientUnits="userSpaceOnUse">
<stop stop-color="white"/>
<stop offset="0.824" stop-color="white" stop-opacity="0.4817"/>
<stop offset="1" stop-color="white" stop-opacity="0"/>
</linearGradient>
<linearGradient id="paint4_linear_1_30" x1="197.682" y1="30.7666" x2="241.17" y2="30.7666" gradientUnits="userSpaceOnUse">
<stop stop-color="white"/>
<stop offset="0.824" stop-color="white" stop-opacity="0.4817"/>
<stop offset="1" stop-color="white" stop-opacity="0"/>
</linearGradient>
<linearGradient id="paint5_linear_1_30" x1="355.3" y1="108.624" x2="371.115" y2="108.624" gradientUnits="userSpaceOnUse">
<stop stop-color="white"/>
<stop offset="0.824" stop-color="white" stop-opacity="0.4817"/>
<stop offset="1" stop-color="white" stop-opacity="0"/>
</linearGradient>
</defs>
</svg>